<svg width="10990" height="1828" viewBox="0 0 10990 1828" fill="none" xmlns="http://www.w3.org/2000/svg">
<path d="M1744 1428.9H1289V1394.9H1356C1404.5 1392.91 1407 1327.9 1407 1327.9V417.4C1407 417.4 1407 332.9 1339.5 332.9H1289.5V315.9H1559C1559 315.9 1606 303.906 1609.5 282.4H1626V450.9H1642.5C1642.5 450.9 1689.33 383.527 1731 353.4C1755.58 335.633 1770.95 327.423 1799 315.9C1844.73 297.117 1872.85 291.303 1923 290.4C1976.74 289.433 2024 297.9 2057.5 308.9C2091 319.9 2119.05 333.354 2135.5 363.9C2142.5 376.9 2086 508.9 2066.5 541.4C2066.5 541.4 2035.5 597.4 2015 621.4C2015 621.4 2013.49 594.517 2015 577.4C2016.15 564.4 2033 552.9 2033 503.9C2033 503.9 2032.19 447.257 2002 413.4C1965.33 372.274 1928.42 357.87 1873.5 353.4C1813.11 348.485 1737.5 393.9 1737.5 393.9C1699.36 418.863 1654 454.9 1642.5 485.9H1626V1328.4C1626 1360.4 1643 1394.9 1676 1394.9H1744V1428.9Z" fill="white" stroke="black" stroke-width="15"/>
<path fill-rule="evenodd" clip-rule="evenodd" d="M1255 1428.91V1394.91H1187.5C1164.97 1387.48 1146 1375.41 1134.5 1367.41C1123 1359.41 1099.5 1336.91 1087.5 1293.41L682.5 45.9072H583.5L345 753.407C345 753.407 275.408 549.181 279.5 414.407C282.813 305.274 282.921 235.47 337.5 140.907C370.648 83.4745 458.5 26.4066 448.5 12.4072C438.5 -1.5922 305.209 72.9726 236 140.907C186.526 189.47 161.967 222.136 131.5 284.407C90.7787 367.639 80.0011 423.25 79.5 515.907C78.9865 610.852 89.9554 668.032 131.5 753.407C172.775 838.228 285 939.907 285 939.907L166 1306.41C166 1306.41 131.5 1394.91 85 1394.91H8V1429.41H294V1395.41L227 1394.91C194.5 1395.41 194.5 1329.41 194.5 1329.41L314 963.407C314 963.407 386.143 1015.25 438 1037.41C489.969 1059.61 521.769 1066.53 577.5 1075.91C667.808 1091.1 812 1075.91 812 1075.91L894 1324.91C894 1324.91 894 1395.41 853 1394.91L800 1395.41V1428.91H1255ZM553.5 282.907L800 1040.91C800 1040.91 710.299 1053.09 655 1040.91C577.777 1023.89 537.658 993.487 479.5 939.907C426.729 891.291 372 790.907 372 790.907L538.5 282.907H553.5Z" fill="white" stroke="black" stroke-width="15"/>
<path d="M9768.5 315.906H9414.5C9414.5 315.906 9497.95 279.747 9515.5 231.406C9527.43 198.552 9515.5 141.906 9515.5 141.906C9500.9 104.466 9441.5 70.4061 9441.5 70.4061C9386.43 31.9023 9279.5 12.4061 9279.5 12.4061C9215.03 1.36736 9112 12.4061 9112 12.4061C9044.04 27.4477 9004.42 44.6959 8951.5 89.9061C8905.24 129.427 8874 169.406 8858.5 214.906C8852.49 232.559 8854.72 244.586 8858.03 262.358L8858.5 264.906C8863.8 293.587 8891.5 331.906 8891.5 331.906L8723 287.906C8723 287.906 8620.23 278.485 8555.5 287.906C8469.95 300.357 8418.83 313.55 8346.5 360.906C8288.16 399.101 8256.99 427.432 8219 485.906C8203.01 510.516 8193 524.473 8184 552.406C8175 580.34 8174.69 661.108 8184 686.406C8193.31 711.704 8203.13 724.115 8219 745.906C8257.42 798.653 8289.38 822.348 8346.5 853.906C8425.64 897.635 8482.24 895.55 8572 906.406H8829C8829 906.406 8926.14 921.124 8975 956.406C9023.1 991.136 9051.76 1019.71 9067.5 1076.91C9078.59 1117.19 9076.61 1143.13 9067.5 1183.91C9053 1248.82 9023.43 1281.32 8975 1326.91C8927.24 1371.85 8891.83 1391.09 8829 1409.91C8829 1409.91 8688.34 1427.3 8614 1409.91C8539.66 1392.51 8500.91 1368.67 8437 1326.91L8431.84 1323.53C8364.93 1279.83 8322.49 1252.12 8278 1183.91C8244.9 1133.16 8219 1040.41 8219 1040.41H8183.5V1428.41H8201.5C8201.5 1428.41 8202.71 1380.11 8223.5 1362.91H8307C8409 1397.41 8454.04 1430.44 8555 1445.41C8640.57 1458.09 8691.18 1459.62 8776.5 1445.41C8857.08 1431.98 8905.7 1422.67 8975 1379.41C9075.76 1316.5 9137.15 1255.95 9162.5 1139.91V990.406C9145.34 904.03 9118.71 853.219 9055.5 791.906C8975.67 714.48 8791 686.406 8791 686.406H8496.5C8436.18 673.804 8396.73 673.108 8346.5 637.406C8318.37 617.409 8298.92 606.035 8284 574.906C8264.59 534.405 8266.36 501.209 8284 459.906C8303.68 413.821 8338.01 401.657 8381 375.906C8381 375.906 8467.4 334.86 8527 325.906C8576.24 318.508 8654.5 325.906 8654.5 325.906C8753.03 338.091 8808.24 363.827 8891.5 417.906C8891.5 417.906 9026.4 494.278 9059.5 578.906C9077.39 624.657 9077.5 703.406 9077.5 703.406H9094V315.406H9077.5C9077.5 315.406 9071.13 350.647 9055.5 364.906C9055.5 364.906 8984.5 372.987 8964.5 364.906C8923.66 348.402 8902.44 321.58 8891.5 278.906C8885.29 254.695 8886.46 239.386 8891.5 214.906C8903.19 158.12 8939.39 134.88 8986 100.406C9023.5 72.6715 9048.99 61.6364 9094 49.4061C9094 49.4061 9205.44 31.4714 9273 49.4061C9273 49.4061 9348.15 68.3494 9383 100.406C9407.56 122.997 9423.23 138.212 9432 170.406C9432 170.406 9439.63 212.083 9432 236.906C9417.91 282.74 9338 315.906 9338 315.906L9262.5 315.406C9262.5 315.406 9285.5 349.406 9313.5 364.906V1192.91C9328.5 1261.91 9334.72 1307.54 9379.5 1362.41C9413.44 1403.98 9491 1445.41 9491 1445.41C9553 1458.41 9599 1458.41 9652 1445.41C9693.45 1435.24 9711.69 1413.45 9742 1383.41C9772.78 1352.9 9811.5 1292.41 9811.5 1292.41C9794.5 1282.91 9787.5 1285.91 9773.5 1292.41C9773.5 1292.41 9720.5 1363.41 9699 1383.41C9677.5 1403.41 9666.5 1410.41 9666.5 1410.41C9666.5 1410.41 9598.59 1433.73 9568 1410.41C9517.5 1371.91 9517.5 1230.91 9517.5 1230.91L9515.5 349.406H9768.5V315.906Z" fill="white"/>
<path d="M7.5 1495.91H10763V1276.91C10763 1276.91 10715.7 1332.79 10679 1361.41C10621 1406.62 10581.8 1427.27 10510.5 1445.41C10472 1455.21 10333.5 1453.91 10291 1445.41C10207.2 1428.65 10154.4 1416.34 10089 1361.41C10023.2 1306.2 9971 1175.91 9971 1175.91V433.906C9971 392.906 9943 357.406 9943 357.406C9943 357.406 9920.5 333.906 9903.5 332.406C9886.5 330.906 9853 332.406 9853 332.406V315.906H10122.5C10122.5 315.906 10141.5 301.067 10156 298.906C10162.8 297.9 10173.5 298.906 10173.5 298.906V1158.91C10173.5 1158.91 10179.5 1210.76 10189.5 1242.41C10202.9 1284.69 10211.4 1310.4 10240.5 1343.91C10271.6 1379.74 10327.7 1403.24 10392 1412.41C10424.5 1417.03 10443.4 1415.8 10476 1412.41C10552.9 1404.39 10609.2 1381.77 10662 1344.41C10707.6 1312.11 10763 1242.91 10763 1242.91V416.906C10763 416.906 10754.5 378.137 10747 365.406C10734.5 344.044 10707.5 332.906 10707.5 332.906H10661.5V315.406H10931.5C10931.5 315.406 10940.2 302.993 10948.5 298.906H10982.5V1819.91H10763.5V1563.65H7.5V1495.91Z" fill="white"/>
<path d="M9971 1175.91C9971 1175.91 10023.2 1306.2 10089 1361.41C10154.4 1416.34 10207.2 1428.65 10291 1445.41C10333.5 1453.91 10472 1455.21 10510.5 1445.41C10581.8 1427.27 10621 1406.62 10679 1361.41C10715.7 1332.79 10763 1276.91 10763 1276.91V1495.91H7.5V1563.65H10763.5V1819.91H10982.5V298.906H10948.5C10940.2 302.993 10931.5 315.406 10931.5 315.406H10661.5V332.906H10707.5C10707.5 332.906 10734.5 344.044 10747 365.406C10754.5 378.137 10763 416.906 10763 416.906V1242.91C10763 1242.91 10707.6 1312.11 10662 1344.41C10609.2 1381.77 10552.9 1404.39 10476 1412.41C10443.4 1415.8 10424.5 1417.03 10392 1412.41C10327.7 1403.24 10271.6 1379.74 10240.5 1343.91C10211.4 1310.4 10202.9 1284.69 10189.5 1242.41C10179.5 1210.76 10173.5 1158.91 10173.5 1158.91V298.906C10173.5 298.906 10162.8 297.9 10156 298.906C10141.5 301.067 10122.5 315.906 10122.5 315.906H9853V332.406C9853 332.406 9886.5 330.906 9903.5 332.406C9920.5 333.906 9943 357.406 9943 357.406C9943 357.406 9971 392.906 9971 433.906M9971 1175.91C9971 1175.91 9971 474.906 9971 433.906M9971 1175.91V433.906M8858.5 264.906C8863.8 293.587 8891.5 331.906 8891.5 331.906L8723 287.906C8723 287.906 8620.23 278.485 8555.5 287.906C8469.95 300.357 8418.83 313.55 8346.5 360.906C8288.16 399.101 8256.99 427.432 8219 485.906C8203.01 510.516 8193 524.473 8184 552.406C8175 580.34 8174.69 661.108 8184 686.406C8193.31 711.704 8203.13 724.115 8219 745.906C8257.42 798.653 8289.38 822.348 8346.5 853.906C8425.64 897.635 8482.24 895.55 8572 906.406H8829C8829 906.406 8926.14 921.124 8975 956.406C9023.1 991.136 9051.76 1019.71 9067.5 1076.91C9078.59 1117.19 9076.61 1143.13 9067.5 1183.91C9053 1248.82 9023.43 1281.32 8975 1326.91C8927.24 1371.85 8891.83 1391.09 8829 1409.91C8829 1409.91 8688.34 1427.3 8614 1409.91C8539.66 1392.51 8500.91 1368.67 8437 1326.91M8858.5 264.906L8858.03 262.358M8858.5 264.906C8858.34 264.043 8858.18 263.194 8858.03 262.358M8437 1326.91L8431.84 1323.53M8437 1326.91C8435.26 1325.77 8433.54 1324.65 8431.84 1323.53M8858.03 262.358C8854.72 244.586 8852.49 232.559 8858.5 214.906C8874 169.406 8905.24 129.427 8951.5 89.9061C9004.42 44.6959 9044.04 27.4477 9112 12.4061C9112 12.4061 9215.03 1.36736 9279.5 12.4061C9279.5 12.4061 9386.43 31.9023 9441.5 70.4061C9441.5 70.4061 9500.9 104.466 9515.5 141.906C9515.5 141.906 9527.43 198.552 9515.5 231.406C9497.95 279.747 9414.5 315.906 9414.5 315.906H9768.5V349.406H9515.5L9517.5 1230.91C9517.5 1230.91 9517.5 1371.91 9568 1410.41C9598.59 1433.73 9666.5 1410.41 9666.5 1410.41C9666.5 1410.41 9677.5 1403.41 9699 1383.41C9720.5 1363.41 9773.5 1292.41 9773.5 1292.41C9787.5 1285.91 9794.5 1282.91 9811.5 1292.41C9811.5 1292.41 9772.78 1352.9 9742 1383.41C9711.69 1413.45 9693.45 1435.24 9652 1445.41C9599 1458.41 9553 1458.41 9491 1445.41C9491 1445.41 9413.44 1403.98 9379.5 1362.41C9334.72 1307.54 9328.5 1261.91 9313.5 1192.91V364.906C9285.5 349.406 9262.5 315.406 9262.5 315.406L9338 315.906C9338 315.906 9417.91 282.74 9432 236.906C9439.63 212.083 9432 170.406 9432 170.406C9423.23 138.212 9407.56 122.997 9383 100.406C9348.15 68.3494 9273 49.4061 9273 49.4061C9205.44 31.4714 9094 49.4061 9094 49.4061C9048.99 61.6364 9023.5 72.6715 8986 100.406C8939.39 134.88 8903.19 158.12 8891.5 214.906C8886.46 239.386 8885.29 254.695 8891.5 278.906C8902.44 321.58 8923.66 348.402 8964.5 364.906C8984.5 372.987 9055.5 364.906 9055.5 364.906C9071.13 350.647 9077.5 315.406 9077.5 315.406H9094V703.406H9077.5C9077.5 703.406 9077.39 624.657 9059.5 578.906C9026.4 494.278 8891.5 417.906 8891.5 417.906C8808.24 363.827 8753.03 338.091 8654.5 325.906C8654.5 325.906 8576.24 318.508 8527 325.906C8467.4 334.86 8381 375.906 8381 375.906C8338.01 401.657 8303.68 413.821 8284 459.906C8266.36 501.209 8264.59 534.405 8284 574.906C8298.92 606.035 8318.37 617.409 8346.5 637.406C8396.73 673.108 8436.18 673.804 8496.5 686.406H8791C8791 686.406 8975.67 714.48 9055.5 791.906C9118.71 853.219 9145.34 904.03 9162.5 990.406V1139.91C9137.15 1255.95 9075.76 1316.5 8975 1379.41C8905.7 1422.67 8857.08 1431.98 8776.5 1445.41C8691.18 1459.62 8640.57 1458.09 8555 1445.41C8454.04 1430.44 8409 1397.41 8307 1362.91H8223.5C8202.71 1380.11 8201.5 1428.41 8201.5 1428.41H8183.5V1040.41H8219C8219 1040.41 8244.9 1133.16 8278 1183.91C8322.49 1252.12 8364.93 1279.83 8431.84 1323.53" stroke="black" stroke-width="15"/>
<path fill-rule="evenodd" clip-rule="evenodd" d="M7998.5 1445.41V569.906C7998.5 569.906 7968.38 479.932 7931 433.906C7893.62 387.881 7855.24 361.64 7796 332.906C7736.76 304.172 7684.53 296.716 7610.5 288.406C7610.5 288.406 7505.15 283.079 7438 288.406C7290.61 300.099 7071.5 383.406 7071.5 383.406V704.406H7089.5C7089.5 704.406 7104.14 630.279 7123.5 586.406C7193.59 427.599 7478.5 318.906 7478.5 318.906C7545.2 306.963 7652 318.906 7652 318.906C7685.28 333.267 7703.4 345.827 7727.5 372.906C7768.31 418.767 7780.5 520.906 7780.5 520.906V888.906C7780.5 888.906 7712.27 832.572 7662.5 806.406C7662.5 806.406 7559.69 762.357 7490 748.406C7381.82 726.751 7207.5 748.406 7207.5 748.406C7145.75 766.85 7059.5 821.406 7059.5 821.406C7015.67 850.058 6955 905.406 6955 905.406C6955 905.406 6946.29 825.053 6940 786.906C6928.39 716.513 6872.5 643.406 6872.5 643.406C6833.71 589.138 6754.5 519.906 6754.5 519.906L6872.5 157.406C6876.19 151.541 6879.36 146.201 6882.34 141.182C6891.44 125.874 6898.76 113.55 6913.5 98.4062C6928.32 83.1728 6956 64.4062 6956 64.4062H7022.5V42.4062H6748V64.4062H6801C6801 64.4062 6838.5 76.4062 6835.5 123.406L6718.5 486.906C6718.5 486.906 6648.02 450.261 6600.5 432.406C6530.85 406.236 6416 384.906 6416 384.906C6355.85 378.082 6261 384.906 6261 384.906C6248.24 389.92 6229.5 400.406 6229.5 400.406L6141 155.406C6141 155.406 6139.1 136.665 6141 124.906C6145.53 96.8709 6152.95 74.2219 6179 62.9062H6229.5V44.9062H5771V62.9062H5840C5840 62.9062 5879.04 83.5053 5899 102.906C5917.32 120.707 5938 155.406 5938 155.406L6346.5 1428.41H6447.5L6685 722.906C6685 722.906 6739.19 864.88 6751.5 960.406C6762.41 1045.04 6751.5 1178.91 6751.5 1178.91C6736.71 1240.19 6719.52 1272.89 6687 1326.91C6672.22 1351.45 6663.14 1364.83 6645.5 1387.41C6624.73 1413.99 6587.5 1451.41 6587.5 1451.41C6587.5 1451.41 6679.74 1421.98 6730 1387.41C6769.84 1359.99 6789.43 1340.05 6821 1303.41C6854.16 1264.92 6893.5 1195.41 6893.5 1195.41H6908.5C6950 1279.41 6995.78 1320.2 7075.5 1371.41C7143.26 1414.94 7188.97 1429.89 7268 1445.41H7498.5C7572.81 1429.44 7615.15 1413.39 7678.5 1371.41C7678.5 1371.41 7739.5 1329.91 7798 1260.41C7798 1260.41 7828.32 1256.26 7847 1260.41C7881.95 1268.17 7897.63 1290.13 7916.81 1317.01L7916.82 1317.01C7920.82 1322.63 7924.98 1328.45 7929.5 1334.41C7958.44 1372.54 7981.5 1445.41 7981.5 1445.41H7998.5ZM6490.5 1198.41L6661 676.906C6661 676.906 6613.57 565.616 6558.5 514.906C6492.09 453.761 6348 419.406 6348 419.406C6305.06 413.479 6237 419.406 6237 419.406L6490.5 1198.41ZM7779.5 941.906V1242.91C7779.5 1242.91 7701.36 1319.49 7642 1355.41C7642 1355.41 7569.12 1404.58 7515.5 1413.91C7479.91 1420.09 7423 1413.91 7423 1413.91C7423 1413.91 7288.37 1371.24 7221.5 1314.41C7221.5 1314.41 7150.79 1248.25 7121.5 1194.91C7121.5 1194.91 7096.91 1148.26 7088.5 1115.91C7088.5 1115.91 7073.33 1020.7 7088.5 962.906C7088.5 962.906 7116.27 877.887 7155 838.906C7155 838.906 7225.75 784.447 7279.5 771.406C7279.5 771.406 7359.25 766.753 7410 771.406C7410 771.406 7471.81 778.687 7510.5 787.906C7510.5 787.906 7605.91 810.58 7659.5 841.406C7712.49 871.883 7779.5 941.906 7779.5 941.906Z" fill="white"/>
<path d="M7916.82 1317.01C7920.82 1322.63 7924.98 1328.45 7929.5 1334.41C7958.44 1372.54 7981.5 1445.41 7981.5 1445.41H7998.5V569.906C7998.5 569.906 7968.38 479.932 7931 433.906C7893.62 387.881 7855.24 361.64 7796 332.906C7736.76 304.172 7684.53 296.716 7610.5 288.406C7610.5 288.406 7505.15 283.079 7438 288.406C7290.61 300.099 7071.5 383.406 7071.5 383.406V704.406H7089.5C7089.5 704.406 7104.14 630.279 7123.5 586.406C7193.59 427.599 7478.5 318.906 7478.5 318.906C7545.2 306.963 7652 318.906 7652 318.906C7685.28 333.267 7703.4 345.827 7727.5 372.906C7768.31 418.767 7780.5 520.906 7780.5 520.906V888.906C7780.5 888.906 7712.27 832.572 7662.5 806.406C7662.5 806.406 7559.69 762.357 7490 748.406C7381.82 726.751 7207.5 748.406 7207.5 748.406C7145.75 766.85 7059.5 821.406 7059.5 821.406C7015.67 850.058 6955 905.406 6955 905.406C6955 905.406 6946.29 825.053 6940 786.906C6928.39 716.513 6872.5 643.406 6872.5 643.406C6833.71 589.138 6754.5 519.906 6754.5 519.906L6872.5 157.406C6876.19 151.541 6879.36 146.201 6882.34 141.182C6891.44 125.874 6898.76 113.55 6913.5 98.4062C6928.32 83.1728 6956 64.4062 6956 64.4062H7022.5V42.4062H6748V64.4062H6801C6801 64.4062 6838.5 76.4062 6835.5 123.406L6718.5 486.906C6718.5 486.906 6648.02 450.261 6600.5 432.406C6530.85 406.236 6416 384.906 6416 384.906C6355.85 378.082 6261 384.906 6261 384.906C6248.24 389.92 6229.5 400.406 6229.5 400.406L6141 155.406C6141 155.406 6139.1 136.665 6141 124.906C6145.53 96.8709 6152.95 74.2219 6179 62.9062H6229.5V44.9062H5771V62.9062H5840C5840 62.9062 5879.04 83.5053 5899 102.906C5917.32 120.707 5938 155.406 5938 155.406L6346.5 1428.41H6447.5L6685 722.906C6685 722.906 6739.19 864.88 6751.5 960.406C6762.41 1045.04 6751.5 1178.91 6751.5 1178.91C6736.71 1240.19 6719.52 1272.89 6687 1326.91C6672.22 1351.45 6663.14 1364.83 6645.5 1387.41C6624.73 1413.99 6587.5 1451.41 6587.5 1451.41C6587.5 1451.41 6679.74 1421.98 6730 1387.41C6769.84 1359.99 6789.43 1340.05 6821 1303.41C6854.16 1264.92 6893.5 1195.41 6893.5 1195.41H6908.5C6950 1279.41 6995.78 1320.2 7075.5 1371.41C7143.26 1414.94 7188.97 1429.89 7268 1445.41H7498.5C7572.81 1429.44 7615.15 1413.39 7678.5 1371.41C7678.5 1371.41 7739.5 1329.91 7798 1260.41C7798 1260.41 7828.32 1256.26 7847 1260.41C7881.95 1268.17 7897.63 1290.13 7916.81 1317.01M7916.82 1317.01L7916.81 1317.01M7916.82 1317.01C7916.81 1317.01 7916.81 1317.01 7916.81 1317.01M6490.5 1198.41L6661 676.906C6661 676.906 6613.57 565.616 6558.5 514.906C6492.09 453.761 6348 419.406 6348 419.406C6305.06 413.479 6237 419.406 6237 419.406L6490.5 1198.41ZM7779.5 1242.91V941.906C7779.5 941.906 7712.49 871.883 7659.5 841.406C7605.91 810.58 7510.5 787.906 7510.5 787.906C7471.81 778.687 7410 771.406 7410 771.406C7359.25 766.753 7279.5 771.406 7279.5 771.406C7225.75 784.447 7155 838.906 7155 838.906C7116.27 877.887 7088.5 962.906 7088.5 962.906C7073.33 1020.7 7088.5 1115.91 7088.5 1115.91C7096.91 1148.26 7121.5 1194.91 7121.5 1194.91C7150.79 1248.25 7221.5 1314.41 7221.5 1314.41C7288.37 1371.24 7423 1413.91 7423 1413.91C7423 1413.91 7479.91 1420.09 7515.5 1413.91C7569.12 1404.58 7642 1355.41 7642 1355.41C7701.36 1319.49 7779.5 1242.91 7779.5 1242.91Z" stroke="black" stroke-width="15"/>
<path fill-rule="evenodd" clip-rule="evenodd" d="M4812.5 788.404H5689C5689 788.404 5692.6 737.01 5689 704.404C5689 704.404 5621.85 508.062 5548.5 427.906C5475.15 347.751 5372 281.904 5183 281.904C4994 281.905 4873.11 310.301 4749.5 439.906C4638.31 556.491 4611 685.298 4611 846.406C4611 1033.91 4652 1163.41 4749.5 1272.41C4856.54 1392.07 5032.06 1469.59 5232 1458.9C5368.47 1451.61 5454.07 1423.25 5560 1336.9C5560 1336.9 5654.63 1254.43 5689 1184.4L5689.88 1182.6C5712.79 1135.94 5746.26 1067.76 5727.5 1056.9C5708.5 1045.9 5678.97 1136.96 5642.5 1184.4L5640.64 1186.82C5603.6 1235.01 5581.89 1263.26 5536 1304.4C5449 1382.4 5380.66 1414.15 5267.5 1413.4C5156.14 1412.67 5089.38 1376.49 5004.5 1304.4C4919.62 1232.32 4908.07 1186.95 4868.5 1099.41C4868.5 1099.41 4827.81 996.906 4819.5 922.406C4814.41 876.802 4812.5 788.404 4812.5 788.404ZM5503.5 753.904L4812.5 753.404C4812.5 753.404 4807.03 686.618 4812.5 644.404C4812.5 644.404 4821.76 588.999 4834 555.404C4855.45 496.536 4873.26 462.776 4917.5 418.404C4984.51 351.193 5044.12 320.599 5139 318.406C5278.25 315.188 5369.24 424.896 5435 528.406C5486.8 609.954 5503.5 753.904 5503.5 753.904Z" fill="white"/>
<path d="M5689 1184.4C5654.63 1254.43 5560 1336.9 5560 1336.9C5454.07 1423.25 5368.47 1451.61 5232 1458.9C5032.06 1469.59 4856.54 1392.07 4749.5 1272.41C4652 1163.41 4611 1033.91 4611 846.406C4611 685.298 4638.31 556.491 4749.5 439.906C4873.11 310.301 4994 281.905 5183 281.904C5372 281.904 5475.15 347.751 5548.5 427.906C5621.85 508.062 5689 704.404 5689 704.404C5692.6 737.01 5689 788.404 5689 788.404H4812.5C4812.5 788.404 4814.41 876.802 4819.5 922.406C4827.81 996.906 4868.5 1099.41 4868.5 1099.41C4908.07 1186.95 4919.62 1232.32 5004.5 1304.4C5089.38 1376.49 5156.14 1412.67 5267.5 1413.4C5380.66 1414.15 5449 1382.4 5536 1304.4C5581.89 1263.26 5603.6 1235.01 5640.64 1186.82M5689 1184.4L5689.88 1182.6M5689 1184.4C5689.29 1183.81 5689.59 1183.21 5689.88 1182.6M5642.5 1184.4C5678.97 1136.96 5708.5 1045.9 5727.5 1056.9C5746.26 1067.76 5712.79 1135.94 5689.88 1182.6M5642.5 1184.4L5640.64 1186.82M5642.5 1184.4C5641.88 1185.21 5641.26 1186.02 5640.64 1186.82M4812.5 753.404L5503.5 753.904C5503.5 753.904 5486.8 609.954 5435 528.406C5369.24 424.896 5278.25 315.188 5139 318.406C5044.12 320.599 4984.51 351.193 4917.5 418.404C4873.26 462.776 4855.45 496.536 4834 555.404C4821.76 588.999 4812.5 644.404 4812.5 644.404C4807.03 686.618 4812.5 753.404 4812.5 753.404Z" stroke="black" stroke-width="15"/>
<path d="M4542.5 1428.41V1394.91H4474.5C4442 1394.91 4424.5 1343.91 4424.5 1327.91V586.906C4424.5 586.906 4424.5 500.406 4307.5 381.906C4307.5 381.906 4169 279.906 3973.5 282.906C3778 285.906 3615.5 485.406 3615.5 485.406V11.9062H3598.38C3595 40.4062 3548.5 44.9062 3548.5 44.9062H3295.5V62.9062H3346C3366.5 62.9062 3390 85.4062 3390 85.4062C3390 85.4062 3413 112.406 3413 131.906L3414.5 824.406C3414.5 824.406 3282.8 1048.63 3194.5 1189.91C3154.5 1253.91 3060 1320.91 3060 1320.91C2976.96 1377.33 2919.4 1409.92 2819 1410.41C2695.63 1411 2619.9 1364.96 2532 1278.41C2452.72 1200.34 2434.53 1131.68 2400 1025.91C2366.58 923.519 2354.1 861.057 2357.5 753.406C2361.2 636.011 2354.94 553.268 2427.5 460.906C2498.93 369.976 2575.29 338.483 2690 323.906C2886.5 298.936 3077 485.906 3077 485.906C3198 596.406 3176.5 703.406 3176.5 703.406H3193.5V315.906H3177C3177 315.906 3165.5 356.906 3156 364.406C3146.5 371.906 3128.5 371.406 3101.5 364.406C3074.5 357.406 2882.89 276.296 2737.5 283.906C2614.99 290.319 2541.15 308.04 2435.5 370.406C2344.02 424.411 2294.02 466.77 2237 556.406C2199.53 615.315 2183.58 653.089 2167 720.906C2142.65 820.485 2144.55 883.383 2167 983.406C2195.85 1111.92 2236.67 1185.97 2330.5 1278.41C2440.83 1387.09 2536.21 1424.82 2689.5 1446.91C2764.49 1457.71 2809.29 1462.17 2883.5 1446.91C2973.06 1428.49 3021.7 1400.73 3094.5 1345.41C3094.5 1345.41 3159.71 1310.41 3236.5 1189.91C3313.29 1069.41 3467.49 789.786 3615.5 533.406C3615.5 533.406 3689 447.906 3754 402.406C3754 402.406 3879 318.406 3990 331.406C3990 331.406 4088.5 331.406 4142.5 402.406C4142.5 402.406 4207.5 470.406 4207.5 533.406V1328.41C4207.5 1346.41 4163 1394.91 4138 1394.91H4087.5V1428.41H4542.5Z" fill="white"/>
<path d="M3750 1428.41V1395.41H3684C3657.5 1395.41 3615 1336.41 3615 1310.41L3615.5 602.906H3599L3414.5 940.406V1327.91C3414.5 1355.91 3387.5 1394.91 3361.5 1395.41H3295.5V1428.41H3750Z" fill="white"/>
<path d="M4542.5 1394.91V1428.41H4087.5V1394.91H4138C4163 1394.91 4207.5 1346.41 4207.5 1328.41V533.406C4207.5 470.406 4142.5 402.406 4142.5 402.406C4088.5 331.406 3990 331.406 3990 331.406C3879 318.406 3754 402.406 3754 402.406C3689 447.906 3615.5 533.406 3615.5 533.406C3467.49 789.786 3313.29 1069.41 3236.5 1189.91C3159.71 1310.41 3094.5 1345.41 3094.5 1345.41C3021.7 1400.73 2973.06 1428.49 2883.5 1446.91C2809.29 1462.17 2764.49 1457.71 2689.5 1446.91C2536.21 1424.82 2440.83 1387.09 2330.5 1278.41C2236.67 1185.97 2195.85 1111.92 2167 983.406C2144.55 883.383 2142.65 820.485 2167 720.906C2183.58 653.089 2199.53 615.315 2237 556.406C2294.02 466.77 2344.02 424.411 2435.5 370.406C2541.15 308.04 2614.99 290.319 2737.5 283.906C2882.89 276.296 3074.5 357.406 3101.5 364.406C3128.5 371.406 3146.5 371.906 3156 364.406C3165.5 356.906 3177 315.906 3177 315.906H3193.5V703.406H3176.5C3176.5 703.406 3198 596.406 3077 485.906C3077 485.906 2886.5 298.936 2690 323.906C2575.29 338.483 2498.93 369.976 2427.5 460.906C2354.94 553.268 2361.2 636.011 2357.5 753.406C2354.1 861.057 2366.58 923.519 2400 1025.91C2434.53 1131.68 2452.72 1200.34 2532 1278.41C2619.9 1364.96 2695.63 1411 2819 1410.41C2919.4 1409.92 2976.96 1377.33 3060 1320.91C3060 1320.91 3154.5 1253.91 3194.5 1189.91C3282.8 1048.63 3414.5 824.406 3414.5 824.406L3413 131.906C3413 112.406 3390 85.4062 3390 85.4062C3390 85.4062 3366.5 62.9062 3346 62.9062H3295.5V44.9062H3548.5C3548.5 44.9062 3595 40.4062 3598.38 11.9062H3615.5V485.406C3615.5 485.406 3778 285.906 3973.5 282.906C4169 279.906 4307.5 381.906 4307.5 381.906C4424.5 500.406 4424.5 586.906 4424.5 586.906V1327.91C4424.5 1343.91 4442 1394.91 4474.5 1394.91M4542.5 1394.91C4542.5 1394.91 4507 1394.91 4474.5 1394.91M4542.5 1394.91H4474.5M3750 1428.41V1395.41H3684C3657.5 1395.41 3615 1336.41 3615 1310.41L3615.5 602.906H3599L3414.5 940.406V1327.91C3414.5 1355.91 3387.5 1394.91 3361.5 1395.41H3295.5V1428.41H3750Z" stroke="black" stroke-width="15"/>
</svg>
