<svg width="10975" height="1813" viewBox="0 0 10975 1813" fill="none" xmlns="http://www.w3.org/2000/svg">
<path d="M1736.5 1421.4H1281.5V1387.4H1348.5C1397 1385.41 1399.5 1320.4 1399.5 1320.4V409.9C1399.5 409.9 1399.5 325.4 1332 325.4H1282V308.4H1551.5C1551.5 308.4 1598.5 296.406 1602 274.9H1618.5V443.4H1635C1635 443.4 1681.83 376.027 1723.5 345.9C1748.08 328.133 1763.45 319.923 1791.5 308.4C1837.23 289.617 1865.35 283.803 1915.5 282.9C1969.24 281.933 2016.5 290.4 2050 301.4C2083.5 312.4 2111.55 325.854 2128 356.4C2135 369.4 2078.5 501.4 2059 533.9C2059 533.9 2028 589.9 2007.5 613.9C2007.5 613.9 2005.99 587.017 2007.5 569.9C2008.65 556.9 2025.5 545.4 2025.5 496.4C2025.5 496.4 2024.69 439.757 1994.5 405.9C1957.83 364.774 1920.92 350.37 1866 345.9C1805.61 340.985 1730 386.4 1730 386.4C1691.86 411.363 1646.5 447.4 1635 478.4H1618.5V1320.9C1618.5 1352.9 1635.5 1387.4 1668.5 1387.4H1736.5V1421.4Z" fill="white"/>
<path fill-rule="evenodd" clip-rule="evenodd" d="M1247.5 1421.41V1387.41H1180C1157.47 1379.98 1138.5 1367.91 1127 1359.91C1115.5 1351.91 1092 1329.41 1080 1285.91L675 38.4072H576L337.5 745.907C337.5 745.907 267.908 541.681 272 406.907C275.313 297.774 275.421 227.97 330 133.407C363.148 75.9745 451 18.9066 441 4.90721C431 -9.0922 297.709 65.4726 228.5 133.407C179.026 181.97 154.467 214.636 124 276.907C83.2787 360.139 72.5011 415.75 72 508.407C71.4865 603.352 82.4554 660.532 124 745.907C165.275 830.728 277.5 932.407 277.5 932.407L158.5 1298.91C158.5 1298.91 124 1387.41 77.5 1387.41H0.5V1421.91H286.5V1387.91L219.5 1387.41C187 1387.91 187 1321.91 187 1321.91L306.5 955.907C306.5 955.907 378.643 1007.75 430.5 1029.91C482.469 1052.11 514.269 1059.03 570 1068.41C660.308 1083.6 804.5 1068.41 804.5 1068.41L886.5 1317.41C886.5 1317.41 886.5 1387.91 845.5 1387.41L792.5 1387.91V1421.41H1247.5ZM546 275.407L792.5 1033.41C792.5 1033.41 702.799 1045.59 647.5 1033.41C570.277 1016.39 530.158 985.987 472 932.407C419.229 883.791 364.5 783.407 364.5 783.407L531 275.407H546Z" fill="white"/>
<path d="M9761 308.406H9407C9407 308.406 9490.45 272.247 9508 223.906C9519.93 191.052 9508 134.406 9508 134.406C9493.4 96.9663 9434 62.9061 9434 62.9061C9378.93 24.4023 9272 4.90611 9272 4.90611C9207.53 -6.13264 9104.5 4.90611 9104.5 4.90611C9036.54 19.9477 8996.92 37.1959 8944 82.4061C8897.74 121.927 8866.5 161.906 8851 207.406C8844.99 225.059 8847.22 237.086 8850.53 254.858L8851 257.406C8856.3 286.087 8884 324.406 8884 324.406L8715.5 280.406C8715.5 280.406 8612.73 270.985 8548 280.406C8462.45 292.857 8411.33 306.05 8339 353.406C8280.66 391.601 8249.49 419.932 8211.5 478.406C8195.51 503.016 8185.5 516.973 8176.5 544.906C8167.5 572.84 8167.19 653.608 8176.5 678.906C8185.81 704.204 8195.63 716.615 8211.5 738.406C8249.92 791.153 8281.88 814.848 8339 846.406C8418.14 890.135 8474.74 888.05 8564.5 898.906H8821.5C8821.5 898.906 8918.64 913.624 8967.5 948.906C9015.6 983.636 9044.26 1012.21 9060 1069.41C9071.09 1109.69 9069.11 1135.63 9060 1176.41C9045.5 1241.32 9015.93 1273.82 8967.5 1319.41C8919.74 1364.35 8884.33 1383.59 8821.5 1402.41C8821.5 1402.41 8680.84 1419.8 8606.5 1402.41C8532.16 1385.01 8493.41 1361.17 8429.5 1319.41L8424.34 1316.03C8357.43 1272.33 8314.99 1244.62 8270.5 1176.41C8237.4 1125.66 8211.5 1032.91 8211.5 1032.91H8176V1420.91H8194C8194 1420.91 8195.21 1372.61 8216 1355.41H8299.5C8401.5 1389.91 8446.54 1422.94 8547.5 1437.91C8633.07 1450.59 8683.68 1452.12 8769 1437.91C8849.58 1424.48 8898.2 1415.17 8967.5 1371.91C9068.26 1309 9129.65 1248.45 9155 1132.41V982.906C9137.84 896.53 9111.21 845.719 9048 784.406C8968.17 706.98 8783.5 678.906 8783.5 678.906H8489C8428.68 666.304 8389.23 665.608 8339 629.906C8310.87 609.909 8291.42 598.535 8276.5 567.406C8257.09 526.905 8258.86 493.709 8276.5 452.406C8296.18 406.321 8330.51 394.157 8373.5 368.406C8373.5 368.406 8459.9 327.36 8519.5 318.406C8568.74 311.008 8647 318.406 8647 318.406C8745.53 330.591 8800.74 356.327 8884 410.406C8884 410.406 9018.9 486.778 9052 571.406C9069.89 617.157 9070 695.906 9070 695.906H9086.5V307.906H9070C9070 307.906 9063.63 343.147 9048 357.406C9048 357.406 8977 365.487 8957 357.406C8916.16 340.902 8894.94 314.08 8884 271.406C8877.79 247.195 8878.96 231.886 8884 207.406C8895.69 150.62 8931.89 127.38 8978.5 92.9061C9016 65.1715 9041.49 54.1364 9086.5 41.9061C9086.5 41.9061 9197.94 23.9714 9265.5 41.9061C9265.5 41.9061 9340.65 60.8494 9375.5 92.9061C9400.06 115.497 9415.73 130.712 9424.5 162.906C9424.5 162.906 9432.13 204.583 9424.5 229.406C9410.41 275.24 9330.5 308.406 9330.5 308.406L9255 307.906C9255 307.906 9278 341.906 9306 357.406V1185.41C9321 1254.41 9327.22 1300.04 9372 1354.91C9405.94 1396.48 9483.5 1437.91 9483.5 1437.91C9545.5 1450.91 9591.5 1450.91 9644.5 1437.91C9685.95 1427.74 9704.19 1405.95 9734.5 1375.91C9765.28 1345.4 9804 1284.91 9804 1284.91C9787 1275.41 9780 1278.41 9766 1284.91C9766 1284.91 9713 1355.91 9691.5 1375.91C9670 1395.91 9659 1402.91 9659 1402.91C9659 1402.91 9591.09 1426.23 9560.5 1402.91C9510 1364.41 9510 1223.41 9510 1223.41L9508 341.906H9761V308.406Z" fill="white"/>
<path d="M0 1488.41H10755.5V1269.41C10755.5 1269.41 10708.2 1325.29 10671.5 1353.91C10613.5 1399.12 10574.3 1419.77 10503 1437.91C10464.5 1447.71 10326 1446.41 10283.5 1437.91C10199.7 1421.15 10146.9 1408.84 10081.5 1353.91C10015.7 1298.7 9963.5 1168.41 9963.5 1168.41V426.406C9963.5 385.406 9935.5 349.906 9935.5 349.906C9935.5 349.906 9913 326.406 9896 324.906C9879 323.406 9845.5 324.906 9845.5 324.906V308.406H10115C10115 308.406 10134 293.567 10148.5 291.406C10155.3 290.4 10166 291.406 10166 291.406V1151.41C10166 1151.41 10172 1203.26 10182 1234.91C10195.4 1277.19 10203.9 1302.9 10233 1336.41C10264.1 1372.24 10320.2 1395.74 10384.5 1404.91C10417 1409.53 10435.9 1408.3 10468.5 1404.91C10545.4 1396.89 10601.7 1374.27 10654.5 1336.91C10700.1 1304.61 10755.5 1235.41 10755.5 1235.41V409.406C10755.5 409.406 10747 370.637 10739.5 357.906C10727 336.544 10700 325.406 10700 325.406H10654V307.906H10924C10924 307.906 10932.7 295.493 10941 291.406H10975V1812.41H10756V1556.15H0V1488.41Z" fill="white"/>
<path fill-rule="evenodd" clip-rule="evenodd" d="M7991 1437.91V562.406C7991 562.406 7960.88 472.432 7923.5 426.406C7886.12 380.381 7847.74 354.14 7788.5 325.406C7729.26 296.672 7677.03 289.216 7603 280.906C7603 280.906 7497.65 275.579 7430.5 280.906C7283.11 292.599 7064 375.906 7064 375.906V696.906H7082C7082 696.906 7096.64 622.779 7116 578.906C7186.09 420.099 7471 311.406 7471 311.406C7537.7 299.463 7644.5 311.406 7644.5 311.406C7677.78 325.767 7695.9 338.327 7720 365.406C7760.81 411.267 7773 513.406 7773 513.406V881.406C7773 881.406 7704.77 825.072 7655 798.906C7655 798.906 7552.19 754.857 7482.5 740.906C7374.32 719.251 7200 740.906 7200 740.906C7138.25 759.35 7052 813.906 7052 813.906C7008.17 842.558 6947.5 897.906 6947.5 897.906C6947.5 897.906 6938.79 817.553 6932.5 779.406C6920.89 709.013 6865 635.906 6865 635.906C6826.21 581.638 6747 512.406 6747 512.406L6865 149.906C6868.69 144.041 6871.86 138.701 6874.84 133.682C6883.94 118.374 6891.26 106.05 6906 90.9062C6920.82 75.6728 6948.5 56.9062 6948.5 56.9062H7015V34.9062H6740.5V56.9062H6793.5C6793.5 56.9062 6831 68.9062 6828 115.906L6711 479.406C6711 479.406 6640.52 442.761 6593 424.906C6523.35 398.736 6408.5 377.406 6408.5 377.406C6348.35 370.582 6253.5 377.406 6253.5 377.406C6240.74 382.42 6222 392.906 6222 392.906L6133.5 147.906C6133.5 147.906 6131.6 129.165 6133.5 117.406C6138.03 89.3709 6145.45 66.7219 6171.5 55.4062H6222V37.4062H5763.5V55.4062H5832.5C5832.5 55.4062 5871.54 76.0053 5891.5 95.4062C5909.82 113.207 5930.5 147.906 5930.5 147.906L6339 1420.91H6440L6677.5 715.406C6677.5 715.406 6731.69 857.38 6744 952.906C6754.91 1037.54 6744 1171.41 6744 1171.41C6729.21 1232.69 6712.02 1265.39 6679.5 1319.41C6664.72 1343.95 6655.64 1357.33 6638 1379.91C6617.23 1406.49 6580 1443.91 6580 1443.91C6580 1443.91 6672.24 1414.48 6722.5 1379.91C6762.34 1352.49 6781.93 1332.55 6813.5 1295.91C6846.66 1257.42 6886 1187.91 6886 1187.91H6901C6942.5 1271.91 6988.28 1312.7 7068 1363.91C7135.76 1407.44 7181.47 1422.39 7260.5 1437.91H7491C7565.31 1421.94 7607.65 1405.89 7671 1363.91C7671 1363.91 7732 1322.41 7790.5 1252.91C7790.5 1252.91 7820.82 1248.76 7839.5 1252.91C7874.45 1260.67 7890.13 1282.63 7909.31 1309.51L7909.32 1309.51C7913.32 1315.13 7917.48 1320.95 7922 1326.91C7950.94 1365.04 7974 1437.91 7974 1437.91H7991ZM6483 1190.91L6653.5 669.406C6653.5 669.406 6606.07 558.116 6551 507.406C6484.59 446.261 6340.5 411.906 6340.5 411.906C6297.56 405.979 6229.5 411.906 6229.5 411.906L6483 1190.91ZM7772 934.406V1235.41C7772 1235.41 7693.86 1311.99 7634.5 1347.91C7634.5 1347.91 7561.62 1397.08 7508 1406.41C7472.41 1412.59 7415.5 1406.41 7415.5 1406.41C7415.5 1406.41 7280.87 1363.74 7214 1306.91C7214 1306.91 7143.29 1240.75 7114 1187.41C7114 1187.41 7089.41 1140.76 7081 1108.41C7081 1108.41 7065.83 1013.2 7081 955.406C7081 955.406 7108.77 870.387 7147.5 831.406C7147.5 831.406 7218.25 776.947 7272 763.906C7272 763.906 7351.75 759.253 7402.5 763.906C7402.5 763.906 7464.31 771.187 7503 780.406C7503 780.406 7598.41 803.08 7652 833.906C7704.99 864.383 7772 934.406 7772 934.406Z" fill="white"/>
<path fill-rule="evenodd" clip-rule="evenodd" d="M4805 780.904H5681.5C5681.5 780.904 5685.1 729.51 5681.5 696.904C5681.5 696.904 5614.35 500.562 5541 420.406C5467.65 340.251 5364.5 274.404 5175.5 274.404C4986.5 274.405 4865.61 302.801 4742 432.406C4630.81 548.991 4603.5 677.798 4603.5 838.906C4603.5 1026.41 4644.5 1155.91 4742 1264.91C4849.04 1384.57 5024.56 1462.09 5224.5 1451.4C5360.97 1444.11 5446.57 1415.75 5552.5 1329.4C5552.5 1329.4 5647.13 1246.93 5681.5 1176.9L5682.38 1175.1C5705.29 1128.44 5738.76 1060.26 5720 1049.4C5701 1038.4 5671.47 1129.46 5635 1176.9L5633.14 1179.32C5596.1 1227.51 5574.39 1255.76 5528.5 1296.9C5441.5 1374.9 5373.16 1406.65 5260 1405.9C5148.64 1405.17 5081.88 1368.99 4997 1296.9C4912.12 1224.82 4900.57 1179.45 4861 1091.91C4861 1091.91 4820.31 989.406 4812 914.906C4806.91 869.302 4805 780.904 4805 780.904ZM5496 746.404L4805 745.904C4805 745.904 4799.53 679.118 4805 636.904C4805 636.904 4814.26 581.499 4826.5 547.904C4847.95 489.036 4865.76 455.276 4910 410.904C4977.01 343.693 5036.62 313.099 5131.5 310.906C5270.75 307.688 5361.74 417.396 5427.5 520.906C5479.3 602.454 5496 746.404 5496 746.404Z" fill="white"/>
<path d="M4535 1420.91V1387.41H4467C4434.5 1387.41 4417 1336.41 4417 1320.41V579.406C4417 579.406 4417 492.906 4300 374.406C4300 374.406 4161.5 272.406 3966 275.406C3770.5 278.406 3608 477.906 3608 477.906V4.40625H3590.88C3587.5 32.9062 3541 37.4062 3541 37.4062H3288V55.4062H3338.5C3359 55.4062 3382.5 77.9062 3382.5 77.9062C3382.5 77.9062 3405.5 104.906 3405.5 124.406L3407 816.906C3407 816.906 3275.3 1041.13 3187 1182.41C3147 1246.41 3052.5 1313.41 3052.5 1313.41C2969.46 1369.83 2911.9 1402.42 2811.5 1402.91C2688.13 1403.5 2612.4 1357.46 2524.5 1270.91C2445.22 1192.84 2427.03 1124.18 2392.5 1018.41C2359.08 916.019 2346.6 853.557 2350 745.906C2353.7 628.511 2347.44 545.768 2420 453.406C2491.43 362.476 2567.79 330.983 2682.5 316.406C2879 291.436 3069.5 478.406 3069.5 478.406C3190.5 588.906 3169 695.906 3169 695.906H3186V308.406H3169.5C3169.5 308.406 3158 349.406 3148.5 356.906C3139 364.406 3121 363.906 3094 356.906C3067 349.906 2875.39 268.796 2730 276.406C2607.49 282.819 2533.65 300.54 2428 362.906C2336.52 416.911 2286.52 459.27 2229.5 548.906C2192.03 607.815 2176.08 645.589 2159.5 713.406C2135.15 812.985 2137.05 875.883 2159.5 975.906C2188.35 1104.42 2229.17 1178.47 2323 1270.91C2433.33 1379.59 2528.71 1417.32 2682 1439.41C2756.99 1450.21 2801.79 1454.67 2876 1439.41C2965.56 1420.99 3014.2 1393.23 3087 1337.91C3087 1337.91 3152.21 1302.91 3229 1182.41C3305.79 1061.91 3459.99 782.286 3608 525.906C3608 525.906 3681.5 440.406 3746.5 394.906C3746.5 394.906 3871.5 310.906 3982.5 323.906C3982.5 323.906 4081 323.906 4135 394.906C4135 394.906 4200 462.906 4200 525.906V1320.91C4200 1338.91 4155.5 1387.41 4130.5 1387.41H4080V1420.91H4535Z" fill="white"/>
<path d="M3742.5 1420.91V1387.91H3676.5C3650 1387.91 3607.5 1328.91 3607.5 1302.91L3608 595.406H3591.5L3407 932.906V1320.41C3407 1348.41 3380 1387.41 3354 1387.91H3288V1420.91H3742.5Z" fill="white"/>
</svg>
