<svg width="10983" height="1821" viewBox="0 0 10983 1821" fill="none" xmlns="http://www.w3.org/2000/svg">
<path d="M1740.5 1425.4H1285.5V1391.4H1352.5C1401 1389.41 1403.5 1324.4 1403.5 1324.4V413.9C1403.5 413.9 1403.5 329.4 1336 329.4H1286V312.4H1555.5C1555.5 312.4 1602.5 300.406 1606 278.9H1622.5V447.4H1639C1639 447.4 1685.83 380.027 1727.5 349.9C1752.08 332.133 1767.45 323.923 1795.5 312.4C1841.23 293.617 1869.35 287.803 1919.5 286.9C1973.24 285.933 2020.5 294.4 2054 305.4C2087.5 316.4 2115.55 329.854 2132 360.4C2139 373.4 2082.5 505.4 2063 537.9C2063 537.9 2032 593.9 2011.5 617.9C2011.5 617.9 2009.99 591.017 2011.5 573.9C2012.65 560.9 2029.5 549.4 2029.5 500.4C2029.5 500.4 2028.69 443.757 1998.5 409.9C1961.83 368.774 1924.92 354.37 1870 349.9C1809.61 344.985 1734 390.4 1734 390.4C1695.86 415.363 1650.5 451.4 1639 482.4H1622.5V1324.9C1622.5 1356.9 1639.5 1391.4 1672.5 1391.4H1740.5V1425.4Z" fill="url(#paint0_linear_383_4738)" stroke="black" stroke-width="8"/>
<path fill-rule="evenodd" clip-rule="evenodd" d="M1251.5 1425.41V1391.41H1184C1161.47 1383.98 1142.5 1371.91 1131 1363.91C1119.5 1355.91 1096 1333.41 1084 1289.91L679 42.4072H580L341.5 749.907C341.5 749.907 271.908 545.681 276 410.907C279.313 301.774 279.421 231.97 334 137.407C367.148 79.9745 455 22.9066 445 8.90721C435 -5.0922 301.709 69.4726 232.5 137.407C183.026 185.97 158.467 218.636 128 280.907C87.2787 364.139 76.5011 419.75 76 512.407C75.4865 607.352 86.4554 664.532 128 749.907C169.275 834.728 281.5 936.407 281.5 936.407L162.5 1302.91C162.5 1302.91 128 1391.41 81.5 1391.41H4.5V1425.91H290.5V1391.91L223.5 1391.41C191 1391.91 191 1325.91 191 1325.91L310.5 959.907C310.5 959.907 382.643 1011.75 434.5 1033.91C486.469 1056.11 518.269 1063.03 574 1072.41C664.308 1087.6 808.5 1072.41 808.5 1072.41L890.5 1321.41C890.5 1321.41 890.5 1391.91 849.5 1391.41L796.5 1391.91V1425.41H1251.5ZM550 279.407L796.5 1037.41C796.5 1037.41 706.799 1049.59 651.5 1037.41C574.277 1020.39 534.158 989.987 476 936.407C423.229 887.791 368.5 787.407 368.5 787.407L535 279.407H550Z" fill="url(#paint1_linear_383_4738)" stroke="black" stroke-width="8"/>
<path d="M9765 312.406H9411C9411 312.406 9494.45 276.247 9512 227.906C9523.93 195.052 9512 138.406 9512 138.406C9497.4 100.966 9438 66.9061 9438 66.9061C9382.93 28.4023 9276 8.90611 9276 8.90611C9211.53 -2.13264 9108.5 8.90611 9108.5 8.90611C9040.54 23.9477 9000.92 41.1959 8948 86.4061C8901.74 125.927 8870.5 165.906 8855 211.406C8848.99 229.059 8851.22 241.086 8854.53 258.858L8855 261.406C8860.3 290.087 8888 328.406 8888 328.406L8719.5 284.406C8719.5 284.406 8616.73 274.985 8552 284.406C8466.45 296.857 8415.33 310.05 8343 357.406C8284.66 395.601 8253.49 423.932 8215.5 482.406C8199.51 507.016 8189.5 520.973 8180.5 548.906C8171.5 576.84 8171.19 657.608 8180.5 682.906C8189.81 708.204 8199.63 720.615 8215.5 742.406C8253.92 795.153 8285.88 818.848 8343 850.406C8422.14 894.135 8478.74 892.05 8568.5 902.906H8825.5C8825.5 902.906 8922.64 917.624 8971.5 952.906C9019.6 987.636 9048.26 1016.21 9064 1073.41C9075.09 1113.69 9073.11 1139.63 9064 1180.41C9049.5 1245.32 9019.93 1277.82 8971.5 1323.41C8923.74 1368.35 8888.33 1387.59 8825.5 1406.41C8825.5 1406.41 8684.84 1423.8 8610.5 1406.41C8536.16 1389.01 8497.41 1365.17 8433.5 1323.41L8428.34 1320.03C8361.43 1276.33 8318.99 1248.62 8274.5 1180.41C8241.4 1129.66 8215.5 1036.91 8215.5 1036.91H8180V1424.91H8198C8198 1424.91 8199.21 1376.61 8220 1359.41H8303.5C8405.5 1393.91 8450.54 1426.94 8551.5 1441.91C8637.07 1454.59 8687.68 1456.12 8773 1441.91C8853.58 1428.48 8902.2 1419.17 8971.5 1375.91C9072.26 1313 9133.65 1252.45 9159 1136.41V986.906C9141.84 900.53 9115.21 849.719 9052 788.406C8972.17 710.98 8787.5 682.906 8787.5 682.906H8493C8432.68 670.304 8393.23 669.608 8343 633.906C8314.87 613.909 8295.42 602.535 8280.5 571.406C8261.09 530.905 8262.86 497.709 8280.5 456.406C8300.18 410.321 8334.51 398.157 8377.5 372.406C8377.5 372.406 8463.9 331.36 8523.5 322.406C8572.74 315.008 8651 322.406 8651 322.406C8749.53 334.591 8804.74 360.327 8888 414.406C8888 414.406 9022.9 490.778 9056 575.406C9073.89 621.157 9074 699.906 9074 699.906H9090.5V311.906H9074C9074 311.906 9067.63 347.147 9052 361.406C9052 361.406 8981 369.487 8961 361.406C8920.16 344.902 8898.94 318.08 8888 275.406C8881.79 251.195 8882.96 235.886 8888 211.406C8899.69 154.62 8935.89 131.38 8982.5 96.9061C9020 69.1715 9045.49 58.1364 9090.5 45.9061C9090.5 45.9061 9201.94 27.9714 9269.5 45.9061C9269.5 45.9061 9344.65 64.8494 9379.5 96.9061C9404.06 119.497 9419.73 134.712 9428.5 166.906C9428.5 166.906 9436.13 208.583 9428.5 233.406C9414.41 279.24 9334.5 312.406 9334.5 312.406L9259 311.906C9259 311.906 9282 345.906 9310 361.406V1189.41C9325 1258.41 9331.22 1304.04 9376 1358.91C9409.94 1400.48 9487.5 1441.91 9487.5 1441.91C9549.5 1454.91 9595.5 1454.91 9648.5 1441.91C9689.95 1431.74 9708.19 1409.95 9738.5 1379.91C9769.28 1349.4 9808 1288.91 9808 1288.91C9791 1279.41 9784 1282.41 9770 1288.91C9770 1288.91 9717 1359.91 9695.5 1379.91C9674 1399.91 9663 1406.91 9663 1406.91C9663 1406.91 9595.09 1430.23 9564.5 1406.91C9514 1368.41 9514 1227.41 9514 1227.41L9512 345.906H9765V312.406Z" fill="url(#paint2_linear_383_4738)"/>
<path d="M4 1492.41H10759.5V1273.41C10759.5 1273.41 10712.2 1329.29 10675.5 1357.91C10617.5 1403.12 10578.3 1423.77 10507 1441.91C10468.5 1451.71 10330 1450.41 10287.5 1441.91C10203.7 1425.15 10150.9 1412.84 10085.5 1357.91C10019.7 1302.7 9967.5 1172.41 9967.5 1172.41V430.406C9967.5 389.406 9939.5 353.906 9939.5 353.906C9939.5 353.906 9917 330.406 9900 328.906C9883 327.406 9849.5 328.906 9849.5 328.906V312.406H10119C10119 312.406 10138 297.567 10152.5 295.406C10159.3 294.4 10170 295.406 10170 295.406V1155.41C10170 1155.41 10176 1207.26 10186 1238.91C10199.4 1281.19 10207.9 1306.9 10237 1340.41C10268.1 1376.24 10324.2 1399.74 10388.5 1408.91C10421 1413.53 10439.9 1412.3 10472.5 1408.91C10549.4 1400.89 10605.7 1378.27 10658.5 1340.91C10704.1 1308.61 10759.5 1239.41 10759.5 1239.41V413.406C10759.5 413.406 10751 374.637 10743.5 361.906C10731 340.544 10704 329.406 10704 329.406H10658V311.906H10928C10928 311.906 10936.7 299.493 10945 295.406H10979V1816.41H10760V1560.15H4V1492.41Z" fill="url(#paint3_linear_383_4738)"/>
<path d="M9967.5 1172.41C9967.5 1172.41 10019.7 1302.7 10085.5 1357.91C10150.9 1412.84 10203.7 1425.15 10287.5 1441.91C10330 1450.41 10468.5 1451.71 10507 1441.91C10578.3 1423.77 10617.5 1403.12 10675.5 1357.91C10712.2 1329.29 10759.5 1273.41 10759.5 1273.41V1492.41H4V1560.15H10760V1816.41H10979V295.406H10945C10936.7 299.493 10928 311.906 10928 311.906H10658V329.406H10704C10704 329.406 10731 340.544 10743.5 361.906C10751 374.637 10759.5 413.406 10759.5 413.406V1239.41C10759.5 1239.41 10704.1 1308.61 10658.5 1340.91C10605.7 1378.27 10549.4 1400.89 10472.5 1408.91C10439.9 1412.3 10421 1413.53 10388.5 1408.91C10324.2 1399.74 10268.1 1376.24 10237 1340.41C10207.9 1306.9 10199.4 1281.19 10186 1238.91C10176 1207.26 10170 1155.41 10170 1155.41V295.406C10170 295.406 10159.3 294.4 10152.5 295.406C10138 297.567 10119 312.406 10119 312.406H9849.5V328.906C9849.5 328.906 9883 327.406 9900 328.906C9917 330.406 9939.5 353.906 9939.5 353.906C9939.5 353.906 9967.5 389.406 9967.5 430.406M9967.5 1172.41C9967.5 1172.41 9967.5 471.406 9967.5 430.406M9967.5 1172.41V430.406M8855 261.406C8860.3 290.087 8888 328.406 8888 328.406L8719.5 284.406C8719.5 284.406 8616.73 274.985 8552 284.406C8466.45 296.857 8415.33 310.05 8343 357.406C8284.66 395.601 8253.49 423.932 8215.5 482.406C8199.51 507.016 8189.5 520.973 8180.5 548.906C8171.5 576.84 8171.19 657.608 8180.5 682.906C8189.81 708.204 8199.63 720.615 8215.5 742.406C8253.92 795.153 8285.88 818.848 8343 850.406C8422.14 894.135 8478.74 892.05 8568.5 902.906H8825.5C8825.5 902.906 8922.64 917.624 8971.5 952.906C9019.6 987.636 9048.26 1016.21 9064 1073.41C9075.09 1113.69 9073.11 1139.63 9064 1180.41C9049.5 1245.32 9019.93 1277.82 8971.5 1323.41C8923.74 1368.35 8888.33 1387.59 8825.5 1406.41C8825.5 1406.41 8684.84 1423.8 8610.5 1406.41C8536.16 1389.01 8497.41 1365.17 8433.5 1323.41M8855 261.406L8854.53 258.858M8855 261.406C8854.84 260.543 8854.68 259.694 8854.53 258.858M8433.5 1323.41L8428.34 1320.03M8433.5 1323.41C8431.76 1322.27 8430.04 1321.15 8428.34 1320.03M8854.53 258.858C8851.22 241.086 8848.99 229.059 8855 211.406C8870.5 165.906 8901.74 125.927 8948 86.4061C9000.92 41.1959 9040.54 23.9477 9108.5 8.90611C9108.5 8.90611 9211.53 -2.13264 9276 8.90611C9276 8.90611 9382.93 28.4023 9438 66.9061C9438 66.9061 9497.4 100.966 9512 138.406C9512 138.406 9523.93 195.052 9512 227.906C9494.45 276.247 9411 312.406 9411 312.406H9765V345.906H9512L9514 1227.41C9514 1227.41 9514 1368.41 9564.5 1406.91C9595.09 1430.23 9663 1406.91 9663 1406.91C9663 1406.91 9674 1399.91 9695.5 1379.91C9717 1359.91 9770 1288.91 9770 1288.91C9784 1282.41 9791 1279.41 9808 1288.91C9808 1288.91 9769.28 1349.4 9738.5 1379.91C9708.19 1409.95 9689.95 1431.74 9648.5 1441.91C9595.5 1454.91 9549.5 1454.91 9487.5 1441.91C9487.5 1441.91 9409.94 1400.48 9376 1358.91C9331.22 1304.04 9325 1258.41 9310 1189.41V361.406C9282 345.906 9259 311.906 9259 311.906L9334.5 312.406C9334.5 312.406 9414.41 279.24 9428.5 233.406C9436.13 208.583 9428.5 166.906 9428.5 166.906C9419.73 134.712 9404.06 119.497 9379.5 96.9061C9344.65 64.8494 9269.5 45.9061 9269.5 45.9061C9201.94 27.9714 9090.5 45.9061 9090.5 45.9061C9045.49 58.1364 9020 69.1715 8982.5 96.9061C8935.89 131.38 8899.69 154.62 8888 211.406C8882.96 235.886 8881.79 251.195 8888 275.406C8898.94 318.08 8920.16 344.902 8961 361.406C8981 369.487 9052 361.406 9052 361.406C9067.63 347.147 9074 311.906 9074 311.906H9090.5V699.906H9074C9074 699.906 9073.89 621.157 9056 575.406C9022.9 490.778 8888 414.406 8888 414.406C8804.74 360.327 8749.53 334.591 8651 322.406C8651 322.406 8572.74 315.008 8523.5 322.406C8463.9 331.36 8377.5 372.406 8377.5 372.406C8334.51 398.157 8300.18 410.321 8280.5 456.406C8262.86 497.709 8261.09 530.905 8280.5 571.406C8295.42 602.535 8314.87 613.909 8343 633.906C8393.23 669.608 8432.68 670.304 8493 682.906H8787.5C8787.5 682.906 8972.17 710.98 9052 788.406C9115.21 849.719 9141.84 900.53 9159 986.906V1136.41C9133.65 1252.45 9072.26 1313 8971.5 1375.91C8902.2 1419.17 8853.58 1428.48 8773 1441.91C8687.68 1456.12 8637.07 1454.59 8551.5 1441.91C8450.54 1426.94 8405.5 1393.91 8303.5 1359.41H8220C8199.21 1376.61 8198 1424.91 8198 1424.91H8180V1036.91H8215.5C8215.5 1036.91 8241.4 1129.66 8274.5 1180.41C8318.99 1248.62 8361.43 1276.33 8428.34 1320.03" stroke="black" stroke-width="8"/>
<path fill-rule="evenodd" clip-rule="evenodd" d="M7995 1441.91V566.406C7995 566.406 7964.88 476.432 7927.5 430.406C7890.12 384.381 7851.74 358.14 7792.5 329.406C7733.26 300.672 7681.03 293.216 7607 284.906C7607 284.906 7501.65 279.579 7434.5 284.906C7287.11 296.599 7068 379.906 7068 379.906V700.906H7086C7086 700.906 7100.64 626.779 7120 582.906C7190.09 424.099 7475 315.406 7475 315.406C7541.7 303.463 7648.5 315.406 7648.5 315.406C7681.78 329.767 7699.9 342.327 7724 369.406C7764.81 415.267 7777 517.406 7777 517.406V885.406C7777 885.406 7708.77 829.072 7659 802.906C7659 802.906 7556.19 758.857 7486.5 744.906C7378.32 723.251 7204 744.906 7204 744.906C7142.25 763.35 7056 817.906 7056 817.906C7012.17 846.558 6951.5 901.906 6951.5 901.906C6951.5 901.906 6942.79 821.553 6936.5 783.406C6924.89 713.013 6869 639.906 6869 639.906C6830.21 585.638 6751 516.406 6751 516.406L6869 153.906C6872.69 148.041 6875.86 142.701 6878.84 137.682C6887.94 122.374 6895.26 110.05 6910 94.9062C6924.82 79.6728 6952.5 60.9062 6952.5 60.9062H7019V38.9062H6744.5V60.9062H6797.5C6797.5 60.9062 6835 72.9062 6832 119.906L6715 483.406C6715 483.406 6644.52 446.761 6597 428.906C6527.35 402.736 6412.5 381.406 6412.5 381.406C6352.35 374.582 6257.5 381.406 6257.5 381.406C6244.74 386.42 6226 396.906 6226 396.906L6137.5 151.906C6137.5 151.906 6135.6 133.165 6137.5 121.406C6142.03 93.3709 6149.45 70.7219 6175.5 59.4062H6226V41.4062H5767.5V59.4062H5836.5C5836.5 59.4062 5875.54 80.0053 5895.5 99.4062C5913.82 117.207 5934.5 151.906 5934.5 151.906L6343 1424.91H6444L6681.5 719.406C6681.5 719.406 6735.69 861.38 6748 956.906C6758.91 1041.54 6748 1175.41 6748 1175.41C6733.21 1236.69 6716.02 1269.39 6683.5 1323.41C6668.72 1347.95 6659.64 1361.33 6642 1383.91C6621.23 1410.49 6584 1447.91 6584 1447.91C6584 1447.91 6676.24 1418.48 6726.5 1383.91C6766.34 1356.49 6785.93 1336.55 6817.5 1299.91C6850.66 1261.42 6890 1191.91 6890 1191.91H6905C6946.5 1275.91 6992.28 1316.7 7072 1367.91C7139.76 1411.44 7185.47 1426.39 7264.5 1441.91H7495C7569.31 1425.94 7611.65 1409.89 7675 1367.91C7675 1367.91 7736 1326.41 7794.5 1256.91C7794.5 1256.91 7824.82 1252.76 7843.5 1256.91C7878.45 1264.67 7894.13 1286.63 7913.31 1313.51L7913.32 1313.51C7917.32 1319.13 7921.48 1324.95 7926 1330.91C7954.94 1369.04 7978 1441.91 7978 1441.91H7995ZM6487 1194.91L6657.5 673.406C6657.5 673.406 6610.07 562.116 6555 511.406C6488.59 450.261 6344.5 415.906 6344.5 415.906C6301.56 409.979 6233.5 415.906 6233.5 415.906L6487 1194.91ZM7776 938.406V1239.41C7776 1239.41 7697.86 1315.99 7638.5 1351.91C7638.5 1351.91 7565.62 1401.08 7512 1410.41C7476.41 1416.59 7419.5 1410.41 7419.5 1410.41C7419.5 1410.41 7284.87 1367.74 7218 1310.91C7218 1310.91 7147.29 1244.75 7118 1191.41C7118 1191.41 7093.41 1144.76 7085 1112.41C7085 1112.41 7069.83 1017.2 7085 959.406C7085 959.406 7112.77 874.387 7151.5 835.406C7151.5 835.406 7222.25 780.947 7276 767.906C7276 767.906 7355.75 763.253 7406.5 767.906C7406.5 767.906 7468.31 775.187 7507 784.406C7507 784.406 7602.41 807.08 7656 837.906C7708.99 868.383 7776 938.406 7776 938.406Z" fill="url(#paint4_linear_383_4738)"/>
<path d="M7913.32 1313.51C7917.32 1319.13 7921.48 1324.95 7926 1330.91C7954.94 1369.04 7978 1441.91 7978 1441.91H7995V566.406C7995 566.406 7964.88 476.432 7927.5 430.406C7890.12 384.381 7851.74 358.14 7792.5 329.406C7733.26 300.672 7681.03 293.216 7607 284.906C7607 284.906 7501.65 279.579 7434.5 284.906C7287.11 296.599 7068 379.906 7068 379.906V700.906H7086C7086 700.906 7100.64 626.779 7120 582.906C7190.09 424.099 7475 315.406 7475 315.406C7541.7 303.463 7648.5 315.406 7648.5 315.406C7681.78 329.767 7699.9 342.327 7724 369.406C7764.81 415.267 7777 517.406 7777 517.406V885.406C7777 885.406 7708.77 829.072 7659 802.906C7659 802.906 7556.19 758.857 7486.5 744.906C7378.32 723.251 7204 744.906 7204 744.906C7142.25 763.35 7056 817.906 7056 817.906C7012.17 846.558 6951.5 901.906 6951.5 901.906C6951.5 901.906 6942.79 821.553 6936.5 783.406C6924.89 713.013 6869 639.906 6869 639.906C6830.21 585.638 6751 516.406 6751 516.406L6869 153.906C6872.69 148.041 6875.86 142.701 6878.84 137.682C6887.94 122.374 6895.26 110.05 6910 94.9062C6924.82 79.6728 6952.5 60.9062 6952.5 60.9062H7019V38.9062H6744.5V60.9062H6797.5C6797.5 60.9062 6835 72.9062 6832 119.906L6715 483.406C6715 483.406 6644.52 446.761 6597 428.906C6527.35 402.736 6412.5 381.406 6412.5 381.406C6352.35 374.582 6257.5 381.406 6257.5 381.406C6244.74 386.42 6226 396.906 6226 396.906L6137.5 151.906C6137.5 151.906 6135.6 133.165 6137.5 121.406C6142.03 93.3709 6149.45 70.7219 6175.5 59.4062H6226V41.4062H5767.5V59.4062H5836.5C5836.5 59.4062 5875.54 80.0053 5895.5 99.4062C5913.82 117.207 5934.5 151.906 5934.5 151.906L6343 1424.91H6444L6681.5 719.406C6681.5 719.406 6735.69 861.38 6748 956.906C6758.91 1041.54 6748 1175.41 6748 1175.41C6733.21 1236.69 6716.02 1269.39 6683.5 1323.41C6668.72 1347.95 6659.64 1361.33 6642 1383.91C6621.23 1410.49 6584 1447.91 6584 1447.91C6584 1447.91 6676.24 1418.48 6726.5 1383.91C6766.34 1356.49 6785.93 1336.55 6817.5 1299.91C6850.66 1261.42 6890 1191.91 6890 1191.91H6905C6946.5 1275.91 6992.28 1316.7 7072 1367.91C7139.76 1411.44 7185.47 1426.39 7264.5 1441.91H7495C7569.31 1425.94 7611.65 1409.89 7675 1367.91C7675 1367.91 7736 1326.41 7794.5 1256.91C7794.5 1256.91 7824.82 1252.76 7843.5 1256.91C7878.45 1264.67 7894.13 1286.63 7913.31 1313.51M7913.32 1313.51L7913.31 1313.51M7913.32 1313.51C7913.31 1313.51 7913.31 1313.51 7913.31 1313.51M6487 1194.91L6657.5 673.406C6657.5 673.406 6610.07 562.116 6555 511.406C6488.59 450.261 6344.5 415.906 6344.5 415.906C6301.56 409.979 6233.5 415.906 6233.5 415.906L6487 1194.91ZM7776 1239.41V938.406C7776 938.406 7708.99 868.383 7656 837.906C7602.41 807.08 7507 784.406 7507 784.406C7468.31 775.187 7406.5 767.906 7406.5 767.906C7355.75 763.253 7276 767.906 7276 767.906C7222.25 780.947 7151.5 835.406 7151.5 835.406C7112.77 874.387 7085 959.406 7085 959.406C7069.83 1017.2 7085 1112.41 7085 1112.41C7093.41 1144.76 7118 1191.41 7118 1191.41C7147.29 1244.75 7218 1310.91 7218 1310.91C7284.87 1367.74 7419.5 1410.41 7419.5 1410.41C7419.5 1410.41 7476.41 1416.59 7512 1410.41C7565.62 1401.08 7638.5 1351.91 7638.5 1351.91C7697.86 1315.99 7776 1239.41 7776 1239.41Z" stroke="black" stroke-width="8"/>
<path fill-rule="evenodd" clip-rule="evenodd" d="M4809 784.904H5685.5C5685.5 784.904 5689.1 733.51 5685.5 700.904C5685.5 700.904 5618.35 504.562 5545 424.406C5471.65 344.251 5368.5 278.404 5179.5 278.404C4990.5 278.405 4869.61 306.801 4746 436.406C4634.81 552.991 4607.5 681.798 4607.5 842.906C4607.5 1030.41 4648.5 1159.91 4746 1268.91C4853.04 1388.57 5028.56 1466.09 5228.5 1455.4C5364.97 1448.11 5450.57 1419.75 5556.5 1333.4C5556.5 1333.4 5651.13 1250.93 5685.5 1180.9L5686.38 1179.1C5709.29 1132.44 5742.76 1064.26 5724 1053.4C5705 1042.4 5675.47 1133.46 5639 1180.9L5637.14 1183.32C5600.1 1231.51 5578.39 1259.76 5532.5 1300.9C5445.5 1378.9 5377.16 1410.65 5264 1409.9C5152.64 1409.17 5085.88 1372.99 5001 1300.9C4916.12 1228.82 4904.57 1183.45 4865 1095.91C4865 1095.91 4824.31 993.406 4816 918.906C4810.91 873.302 4809 784.904 4809 784.904ZM5500 750.404L4809 749.904C4809 749.904 4803.53 683.118 4809 640.904C4809 640.904 4818.26 585.499 4830.5 551.904C4851.95 493.036 4869.76 459.276 4914 414.904C4981.01 347.693 5040.62 317.099 5135.5 314.906C5274.75 311.688 5365.74 421.396 5431.5 524.906C5483.3 606.454 5500 750.404 5500 750.404Z" fill="url(#paint5_linear_383_4738)"/>
<path d="M5685.5 1180.9C5651.13 1250.93 5556.5 1333.4 5556.5 1333.4C5450.57 1419.75 5364.97 1448.11 5228.5 1455.4C5028.56 1466.09 4853.04 1388.57 4746 1268.91C4648.5 1159.91 4607.5 1030.41 4607.5 842.906C4607.5 681.798 4634.81 552.991 4746 436.406C4869.61 306.801 4990.5 278.405 5179.5 278.404C5368.5 278.404 5471.65 344.251 5545 424.406C5618.35 504.562 5685.5 700.904 5685.5 700.904C5689.1 733.51 5685.5 784.904 5685.5 784.904H4809C4809 784.904 4810.91 873.302 4816 918.906C4824.31 993.406 4865 1095.91 4865 1095.91C4904.57 1183.45 4916.12 1228.82 5001 1300.9C5085.88 1372.99 5152.64 1409.17 5264 1409.9C5377.16 1410.65 5445.5 1378.9 5532.5 1300.9C5578.39 1259.76 5600.1 1231.51 5637.14 1183.32M5685.5 1180.9L5686.38 1179.1M5685.5 1180.9C5685.79 1180.31 5686.09 1179.71 5686.38 1179.1M5639 1180.9C5675.47 1133.46 5705 1042.4 5724 1053.4C5742.76 1064.26 5709.29 1132.44 5686.38 1179.1M5639 1180.9L5637.14 1183.32M5639 1180.9C5638.38 1181.71 5637.76 1182.52 5637.14 1183.32M4809 749.904L5500 750.404C5500 750.404 5483.3 606.454 5431.5 524.906C5365.74 421.396 5274.75 311.688 5135.5 314.906C5040.62 317.099 4981.01 347.693 4914 414.904C4869.76 459.276 4851.95 493.036 4830.5 551.904C4818.26 585.499 4809 640.904 4809 640.904C4803.53 683.118 4809 749.904 4809 749.904Z" stroke="black" stroke-width="8"/>
<path d="M4539 1424.91V1391.41H4471C4438.5 1391.41 4421 1340.41 4421 1324.41V583.406C4421 583.406 4421 496.906 4304 378.406C4304 378.406 4165.5 276.406 3970 279.406C3774.5 282.406 3612 481.906 3612 481.906V8.40625H3594.88C3591.5 36.9062 3545 41.4062 3545 41.4062H3292V59.4062H3342.5C3363 59.4062 3386.5 81.9062 3386.5 81.9062C3386.5 81.9062 3409.5 108.906 3409.5 128.406L3411 820.906C3411 820.906 3279.3 1045.13 3191 1186.41C3151 1250.41 3056.5 1317.41 3056.5 1317.41C2973.46 1373.83 2915.9 1406.42 2815.5 1406.91C2692.13 1407.5 2616.4 1361.46 2528.5 1274.91C2449.22 1196.84 2431.03 1128.18 2396.5 1022.41C2363.08 920.019 2350.6 857.557 2354 749.906C2357.7 632.511 2351.44 549.768 2424 457.406C2495.43 366.476 2571.79 334.983 2686.5 320.406C2883 295.436 3073.5 482.406 3073.5 482.406C3194.5 592.906 3173 699.906 3173 699.906H3190V312.406H3173.5C3173.5 312.406 3162 353.406 3152.5 360.906C3143 368.406 3125 367.906 3098 360.906C3071 353.906 2879.39 272.796 2734 280.406C2611.49 286.819 2537.65 304.54 2432 366.906C2340.52 420.911 2290.52 463.27 2233.5 552.906C2196.03 611.815 2180.08 649.589 2163.5 717.406C2139.15 816.985 2141.05 879.883 2163.5 979.906C2192.35 1108.42 2233.17 1182.47 2327 1274.91C2437.33 1383.59 2532.71 1421.32 2686 1443.41C2760.99 1454.21 2805.79 1458.67 2880 1443.41C2969.56 1424.99 3018.2 1397.23 3091 1341.91C3091 1341.91 3156.21 1306.91 3233 1186.41C3309.79 1065.91 3463.99 786.286 3612 529.906C3612 529.906 3685.5 444.406 3750.5 398.906C3750.5 398.906 3875.5 314.906 3986.5 327.906C3986.5 327.906 4085 327.906 4139 398.906C4139 398.906 4204 466.906 4204 529.906V1324.91C4204 1342.91 4159.5 1391.41 4134.5 1391.41H4084V1424.91H4539Z" fill="url(#paint6_linear_383_4738)"/>
<path d="M3746.5 1424.91V1391.91H3680.5C3654 1391.91 3611.5 1332.91 3611.5 1306.91L3612 599.406H3595.5L3411 936.906V1324.41C3411 1352.41 3384 1391.41 3358 1391.91H3292V1424.91H3746.5Z" fill="url(#paint7_linear_383_4738)"/>
<path d="M4539 1391.41V1424.91H4084V1391.41H4134.5C4159.5 1391.41 4204 1342.91 4204 1324.91V529.906C4204 466.906 4139 398.906 4139 398.906C4085 327.906 3986.5 327.906 3986.5 327.906C3875.5 314.906 3750.5 398.906 3750.5 398.906C3685.5 444.406 3612 529.906 3612 529.906C3463.99 786.286 3309.79 1065.91 3233 1186.41C3156.21 1306.91 3091 1341.91 3091 1341.91C3018.2 1397.23 2969.56 1424.99 2880 1443.41C2805.79 1458.67 2760.99 1454.21 2686 1443.41C2532.71 1421.32 2437.33 1383.59 2327 1274.91C2233.17 1182.47 2192.35 1108.42 2163.5 979.906C2141.05 879.883 2139.15 816.985 2163.5 717.406C2180.08 649.589 2196.03 611.815 2233.5 552.906C2290.52 463.27 2340.52 420.911 2432 366.906C2537.65 304.54 2611.49 286.819 2734 280.406C2879.39 272.796 3071 353.906 3098 360.906C3125 367.906 3143 368.406 3152.5 360.906C3162 353.406 3173.5 312.406 3173.5 312.406H3190V699.906H3173C3173 699.906 3194.5 592.906 3073.5 482.406C3073.5 482.406 2883 295.436 2686.5 320.406C2571.79 334.983 2495.43 366.476 2424 457.406C2351.44 549.768 2357.7 632.511 2354 749.906C2350.6 857.557 2363.08 920.019 2396.5 1022.41C2431.03 1128.18 2449.22 1196.84 2528.5 1274.91C2616.4 1361.46 2692.13 1407.5 2815.5 1406.91C2915.9 1406.42 2973.46 1373.83 3056.5 1317.41C3056.5 1317.41 3151 1250.41 3191 1186.41C3279.3 1045.13 3411 820.906 3411 820.906L3409.5 128.406C3409.5 108.906 3386.5 81.9062 3386.5 81.9062C3386.5 81.9062 3363 59.4062 3342.5 59.4062H3292V41.4062H3545C3545 41.4062 3591.5 36.9062 3594.88 8.40625H3612V481.906C3612 481.906 3774.5 282.406 3970 279.406C4165.5 276.406 4304 378.406 4304 378.406C4421 496.906 4421 583.406 4421 583.406V1324.41C4421 1340.41 4438.5 1391.41 4471 1391.41M4539 1391.41C4539 1391.41 4503.5 1391.41 4471 1391.41M4539 1391.41H4471M3746.5 1424.91V1391.91H3680.5C3654 1391.91 3611.5 1332.91 3611.5 1306.91L3612 599.406H3595.5L3411 936.906V1324.41C3411 1352.41 3384 1391.41 3358 1391.91H3292V1424.91H3746.5Z" stroke="black" stroke-width="8"/>
<defs>
<linearGradient id="paint0_linear_383_4738" x1="2132.6" y1="852.15" x2="1285.5" y2="852.15" gradientUnits="userSpaceOnUse">
<stop offset="0.134615" stop-color="#FFD75E"/>
<stop offset="0.3125" stop-color="#FFB215"/>
<stop offset="0.442308" stop-color="#FFD75E"/>
<stop offset="0.658654" stop-color="#FFD75E"/>
<stop offset="0.784099" stop-color="#FFB215"/>
<stop offset="0.951844" stop-color="#FFD75E"/>
</linearGradient>
<linearGradient id="paint1_linear_383_4738" x1="1251.5" y1="716.552" x2="4.5" y2="716.552" gradientUnits="userSpaceOnUse">
<stop offset="0.134615" stop-color="#FFD75E"/>
<stop offset="0.3125" stop-color="#FFB215"/>
<stop offset="0.442308" stop-color="#FFD75E"/>
<stop offset="0.658654" stop-color="#FFD75E"/>
<stop offset="0.784099" stop-color="#FFB215"/>
<stop offset="0.951844" stop-color="#FFD75E"/>
</linearGradient>
<linearGradient id="paint2_linear_383_4738" x1="10979" y1="910.203" x2="4" y2="910.203" gradientUnits="userSpaceOnUse">
<stop offset="0.134615" stop-color="#FFD75E"/>
<stop offset="0.3125" stop-color="#FFB215"/>
<stop offset="0.442308" stop-color="#FFD75E"/>
<stop offset="0.658654" stop-color="#FFD75E"/>
<stop offset="0.784099" stop-color="#FFB215"/>
<stop offset="0.951844" stop-color="#FFD75E"/>
</linearGradient>
<linearGradient id="paint3_linear_383_4738" x1="10979" y1="910.203" x2="4" y2="910.203" gradientUnits="userSpaceOnUse">
<stop offset="0.134615" stop-color="#FFD75E"/>
<stop offset="0.3125" stop-color="#FFB215"/>
<stop offset="0.442308" stop-color="#FFD75E"/>
<stop offset="0.658654" stop-color="#FFD75E"/>
<stop offset="0.784099" stop-color="#FFB215"/>
<stop offset="0.951844" stop-color="#FFD75E"/>
</linearGradient>
<linearGradient id="paint4_linear_383_4738" x1="7995" y1="743.406" x2="5767.5" y2="743.406" gradientUnits="userSpaceOnUse">
<stop offset="0.134615" stop-color="#FFD75E"/>
<stop offset="0.3125" stop-color="#FFB215"/>
<stop offset="0.442308" stop-color="#FFD75E"/>
<stop offset="0.658654" stop-color="#FFD75E"/>
<stop offset="0.784099" stop-color="#FFB215"/>
<stop offset="0.951844" stop-color="#FFD75E"/>
</linearGradient>
<linearGradient id="paint5_linear_383_4738" x1="5729.49" y1="867.395" x2="4607.5" y2="867.395" gradientUnits="userSpaceOnUse">
<stop offset="0.134615" stop-color="#FFD75E"/>
<stop offset="0.3125" stop-color="#FFB215"/>
<stop offset="0.442308" stop-color="#FFD75E"/>
<stop offset="0.658654" stop-color="#FFD75E"/>
<stop offset="0.784099" stop-color="#FFB215"/>
<stop offset="0.951844" stop-color="#FFD75E"/>
</linearGradient>
<linearGradient id="paint6_linear_383_4738" x1="4539" y1="730.828" x2="2145.94" y2="730.828" gradientUnits="userSpaceOnUse">
<stop offset="0.134615" stop-color="#FFD75E"/>
<stop offset="0.3125" stop-color="#FFB215"/>
<stop offset="0.442308" stop-color="#FFD75E"/>
<stop offset="0.658654" stop-color="#FFD75E"/>
<stop offset="0.784099" stop-color="#FFB215"/>
<stop offset="0.951844" stop-color="#FFD75E"/>
</linearGradient>
<linearGradient id="paint7_linear_383_4738" x1="4539" y1="730.828" x2="2145.94" y2="730.828" gradientUnits="userSpaceOnUse">
<stop offset="0.134615" stop-color="#FFD75E"/>
<stop offset="0.3125" stop-color="#FFB215"/>
<stop offset="0.442308" stop-color="#FFD75E"/>
<stop offset="0.658654" stop-color="#FFD75E"/>
<stop offset="0.784099" stop-color="#FFB215"/>
<stop offset="0.951844" stop-color="#FFD75E"/>
</linearGradient>
</defs>
</svg>
