<svg width="3080" height="2250" viewBox="0 0 3080 2250" fill="none" xmlns="http://www.w3.org/2000/svg">
<path fill-rule="evenodd" clip-rule="evenodd" d="M13.8369 2222.01C23.7838 2222.19 102.103 2223.64 186.014 2159.5C186.014 2159.5 239.014 2122.5 271.52 2058L467.02 1466.5C467.02 1466.5 361.514 1396 268.52 1266C268.52 1266 150.014 1105 134.52 915C134.52 915 111.014 737.5 150.02 593.5C189.025 449.5 252.02 364.5 252.02 364.5C252.02 364.5 322.014 241 470.02 135C470.02 135 540.025 84.3356 614.52 52C689.014 19.6644 737.02 7.5 737.02 7.5C737.02 7.5 664.514 49 614.52 110C614.52 110 525.514 199 483.52 364.5C483.52 364.5 455.014 455.5 455.02 593.5C455.02 593.5 450.514 731 485.52 915C520.525 1099 561.514 1182.5 561.514 1182.5L948.02 7.5H1776.02C1784.01 7.49991 1784.52 17.5 1784.52 17.5C1784.52 17.5 1784.01 27.4999 1776.02 27.5C1775.63 27.5 1775.12 27.4928 1774.5 27.4841C1762.4 27.3143 1708.23 26.5535 1673.52 66.5C1637.03 108.5 1641.51 143.5 1641.51 143.5C1641.51 143.5 1639.01 130 1641.51 167.5C1644.01 205 1662.01 247 1662.01 247C1688.01 330 1773.51 586 1773.51 586C1773.51 586 1856.51 563 1949.02 563.5C1949.02 563.5 2118.51 567 2272.02 607.5C2272.02 607.5 2422.01 642 2579.01 755.5L2755.52 218C2755.52 218 2766.1 182.362 2765.52 159C2765.52 159 2765.52 110.5 2739.52 76.5C2739.52 76.5 2708.51 24.9999 2627.52 27.5C2627.52 27.5 2620.02 27.5001 2620.02 18C2620.02 8.49991 2629.02 7.5 2629.02 7.5H3064.02C3064.02 7.5 3071.53 7.49991 3071.52 17.5C3071.51 27.5001 3064.02 27.5 3064.02 27.5C2974.01 29 2912.01 77 2912.01 77C2853.01 116.5 2827.52 159 2827.52 159C2812.51 180.5 2798.02 218 2798.02 218L2612.52 782.5C2612.52 782.5 2733.51 869.5 2801.52 969.5C2801.52 969.5 2882.51 1082 2917.01 1193.5C2951.52 1305 2953.02 1432 2953.02 1432V1503.5C2953.02 1582.64 2943.95 1612.99 2928.43 1664.94C2926.1 1672.73 2923.63 1681 2921.02 1690C2901.01 1759 2854.02 1843 2854.02 1843C2809.51 1932 2706.52 2034.5 2706.52 2034.5C2599.01 2137.5 2478.02 2192 2478.02 2192C2429.01 2217 2344.52 2242.5 2343.51 2241.5C2343.17 2241.16 2348.31 2237.8 2356.21 2232.66L2356.22 2232.65L2356.23 2232.64C2371.32 2222.81 2396.44 2206.44 2412.52 2192C2412.52 2192 2484.51 2135 2538.52 2034.5C2592.53 1934 2607.02 1843 2607.02 1843C2619.95 1784.22 2625.52 1690 2625.52 1690V1580C2625.52 1580 2618.97 1489.53 2611.02 1432C2611.02 1432 2581.51 1247.5 2562.02 1193C2562.02 1193 2539.25 1114.89 2519.02 1067L2132.52 2241.5H1303.52C1303.52 2241.5 1296.03 2241.72 1296.02 2232C1296.01 2222.28 1303.52 2221.5 1303.52 2221.5C1303.52 2221.5 1420.51 2232 1439.52 2110.5V2077.5L1430.52 2036.5L1306.52 1662C1263.01 1679.5 1153.52 1685 1153.52 1685H1106.52C1015.62 1683.1 875.52 1656 875.52 1656C809.514 1646 709.52 1609.5 709.52 1609.5C651.134 1586.56 588.713 1549.87 563.26 1534.9L563.257 1534.9C562.1 1534.22 561.02 1533.59 560.02 1533C537.014 1519.5 502.02 1494.5 502.02 1494.5L327.52 2024C327.52 2024 316.02 2052 316.02 2077V2103C316.02 2103 313.525 2131.5 339.02 2170C364.514 2208.5 406.02 2216.5 406.02 2216.5C424.082 2221.88 454.02 2221.5 454.02 2221.5L460.02 2231.5L449.52 2241.5H16.5195C8.51367 2241.5 7.51953 2232 7.51953 2232C7.51953 2232 8.01367 2222 13.0195 2222C13.1973 2222 13.4708 2222 13.8369 2222.01ZM878.02 354.5L588.02 1230C608.372 1271.64 649.52 1331.5 649.52 1331.5C649.52 1331.5 706.014 1414 752.52 1451.5C752.52 1451.5 844.014 1537.5 957.02 1585C1070.03 1632.5 1153.52 1634 1153.52 1634H1215.02C1215.02 1634 1263.51 1629.5 1293.02 1621.5L878.02 354.5ZM2202.02 1893.5L1787.02 627.5C1787.02 627.5 1837.28 616.601 1870.02 614.5C1893.01 613.025 1929.02 614.5 1929.02 614.5C1929.02 614.5 2029.51 623.5 2107.51 657.5C2107.51 657.5 2205.51 692 2315.52 785C2315.52 785 2396.01 855.5 2459.02 961L2491.52 1018L2202.02 1893.5ZM1315.52 226.5L1971.52 2213.5C1971.52 2213.5 1930.51 2209 1869.02 2163C1869.02 2163 1824.53 2131.5 1796.52 2089C1768.51 2046.5 1758.02 1999.5 1758.02 1999.5L1108.02 34.5C1108.02 34.5 1156.01 48 1190.02 70.5C1190.02 70.5 1243.03 103.5 1275.52 148.5C1308.01 193.5 1315.52 226.5 1315.52 226.5Z" fill="white"/>
<path d="M948.02 7.5L561.514 1182.5C561.514 1182.5 520.525 1099 485.52 915C450.514 731 455.02 593.5 455.02 593.5C455.014 455.5 483.52 364.5 483.52 364.5C525.514 199 614.52 110 614.52 110C664.514 49 737.02 7.5 737.02 7.5C737.02 7.5 689.014 19.6644 614.52 52C540.025 84.3356 470.02 135 470.02 135C322.014 241 252.02 364.5 252.02 364.5C252.02 364.5 189.025 449.5 150.02 593.5C111.014 737.5 134.52 915 134.52 915C150.014 1105 268.52 1266 268.52 1266C361.514 1396 467.02 1466.5 467.02 1466.5L271.52 2058C239.014 2122.5 186.014 2159.5 186.014 2159.5C102.103 2223.64 23.7838 2222.19 13.8369 2222.01C13.4708 2222 13.1973 2222 13.0195 2222C8.01367 2222 7.51953 2232 7.51953 2232C7.51953 2232 8.51367 2241.5 16.5195 2241.5M948.02 7.5C948.02 7.5 1768.03 7.50009 1776.02 7.5M948.02 7.5H1776.02M1776.02 7.5C1784.01 7.49991 1784.52 17.5 1784.52 17.5C1784.52 17.5 1784.01 27.4999 1776.02 27.5C1775.63 27.5 1775.12 27.4928 1774.5 27.4841C1762.4 27.3143 1708.23 26.5535 1673.52 66.5C1637.03 108.5 1641.51 143.5 1641.51 143.5C1641.51 143.5 1639.01 130 1641.51 167.5C1644.01 205 1662.01 247 1662.01 247C1688.01 330 1773.51 586 1773.51 586C1773.51 586 1856.51 563 1949.02 563.5C1949.02 563.5 2118.51 567 2272.02 607.5C2272.02 607.5 2422.01 642 2579.01 755.5L2755.52 218C2755.52 218 2766.1 182.362 2765.52 159C2765.52 159 2765.52 110.5 2739.52 76.5C2739.52 76.5 2708.51 24.9999 2627.52 27.5C2627.52 27.5 2620.02 27.5001 2620.02 18C2620.02 8.49991 2629.02 7.5 2629.02 7.5H3064.02C3064.02 7.5 3071.53 7.49991 3071.52 17.5C3071.51 27.5001 3064.02 27.5 3064.02 27.5C2974.01 29 2912.01 77 2912.01 77C2853.01 116.5 2827.52 159 2827.52 159C2812.51 180.5 2798.02 218 2798.02 218L2612.52 782.5C2612.52 782.5 2733.51 869.5 2801.52 969.5C2801.52 969.5 2882.51 1082 2917.01 1193.5C2951.52 1305 2953.02 1432 2953.02 1432V1503.5C2953.02 1582.64 2943.95 1612.99 2928.43 1664.94C2926.1 1672.73 2923.63 1681 2921.02 1690C2901.01 1759 2854.02 1843 2854.02 1843C2809.51 1932 2706.52 2034.5 2706.52 2034.5C2599.01 2137.5 2478.02 2192 2478.02 2192C2429.01 2217 2344.52 2242.5 2343.51 2241.5C2343.17 2241.16 2348.31 2237.8 2356.21 2232.66M449.52 2241.5L460.02 2231.5L454.02 2221.5C454.02 2221.5 424.082 2221.88 406.02 2216.5C406.02 2216.5 364.514 2208.5 339.02 2170C313.525 2131.5 316.02 2103 316.02 2103V2077C316.02 2052 327.52 2024 327.52 2024L502.02 1494.5C502.02 1494.5 537.014 1519.5 560.02 1533C561.02 1533.59 562.1 1534.22 563.257 1534.9L563.26 1534.9C588.713 1549.87 651.134 1586.56 709.52 1609.5C709.52 1609.5 809.514 1646 875.52 1656C875.52 1656 1015.62 1683.1 1106.52 1685H1153.52C1153.52 1685 1263.01 1679.5 1306.52 1662L1430.52 2036.5L1439.52 2077.5V2110.5C1420.51 2232 1303.52 2221.5 1303.52 2221.5C1303.52 2221.5 1296.01 2222.28 1296.02 2232C1296.03 2241.72 1303.52 2241.5 1303.52 2241.5H2132.52L2519.02 1067C2539.25 1114.89 2562.02 1193 2562.02 1193C2581.51 1247.5 2611.02 1432 2611.02 1432C2618.97 1489.53 2625.52 1580 2625.52 1580V1690C2625.52 1690 2619.95 1784.22 2607.02 1843C2607.02 1843 2592.53 1934 2538.52 2034.5C2484.51 2135 2412.52 2192 2412.52 2192C2396.44 2206.44 2371.32 2222.81 2356.23 2232.64M449.52 2241.5C449.52 2241.5 24.5254 2241.5 16.5195 2241.5M449.52 2241.5H16.5195M2356.23 2232.64L2356.22 2232.65M2356.23 2232.64C2356.23 2232.65 2356.22 2232.65 2356.22 2232.65M2356.22 2232.65L2356.21 2232.66M2356.22 2232.65C2356.22 2232.65 2356.21 2232.65 2356.21 2232.66M588.02 1230L878.02 354.5L1293.02 1621.5C1263.51 1629.5 1215.02 1634 1215.02 1634H1153.52C1153.52 1634 1070.03 1632.5 957.02 1585C844.014 1537.5 752.52 1451.5 752.52 1451.5C706.014 1414 649.52 1331.5 649.52 1331.5C649.52 1331.5 608.372 1271.64 588.02 1230ZM1971.52 2213.5L1315.52 226.5C1315.52 226.5 1308.01 193.5 1275.52 148.5C1243.03 103.5 1190.02 70.5 1190.02 70.5C1156.01 48 1108.02 34.5 1108.02 34.5L1758.02 1999.5C1758.02 1999.5 1768.51 2046.5 1796.52 2089C1824.53 2131.5 1869.02 2163 1869.02 2163C1930.51 2209 1971.52 2213.5 1971.52 2213.5ZM2202.02 1893.5L1787.02 627.5C1787.02 627.5 1837.28 616.601 1870.02 614.5C1893.01 613.025 1929.02 614.5 1929.02 614.5C1929.02 614.5 2029.51 623.5 2107.51 657.5C2107.51 657.5 2205.51 692 2315.52 785C2315.52 785 2396.01 855.5 2459.02 961L2491.52 1018L2202.02 1893.5Z" stroke="black" stroke-width="15"/>
</svg>
