<svg width="3064" height="2235" viewBox="0 0 3064 2235" fill="none" xmlns="http://www.w3.org/2000/svg">
<path fill-rule="evenodd" clip-rule="evenodd" d="M6.31739 2214.51C16.2643 2214.69 94.583 2216.14 178.494 2152C178.494 2152 231.494 2115 264 2050.5L459.5 1459C459.5 1459 353.994 1388.5 261 1258.5C261 1258.5 142.494 1097.5 127 907.5C127 907.5 103.494 730 142.5 586C181.506 442 244.5 357 244.5 357C244.5 357 314.494 233.5 462.5 127.5C462.5 127.5 532.506 76.8356 607 44.5C681.494 12.1644 729.5 6.39778e-10 729.5 6.39778e-10C729.5 6.39778e-10 656.994 41.5 607 102.5C607 102.5 517.994 191.5 476 357C476 357 447.494 448 447.5 586C447.5 586 442.994 723.5 478 907.5C513.006 1091.5 553.994 1175 553.994 1175L940.5 6.39778e-10H1768.5C1776.49 -9.23601e-05 1777 10 1777 10C1777 10 1776.49 19.9999 1768.5 20C1768.11 20 1767.6 19.9928 1766.98 19.9841C1754.88 19.8143 1700.71 19.0535 1666 59C1629.51 101 1633.99 136 1633.99 136C1633.99 136 1631.49 122.5 1633.99 160C1636.49 197.5 1654.49 239.5 1654.49 239.5C1680.49 322.5 1765.99 578.5 1765.99 578.5C1765.99 578.5 1848.99 555.5 1941.5 556C1941.5 556 2110.99 559.5 2264.5 600C2264.5 600 2414.49 634.5 2571.49 748L2748 210.5C2748 210.5 2758.58 174.862 2758 151.5C2758 151.5 2758 103 2732 69C2732 69 2700.99 17.4999 2620 20C2620 20 2612.5 20.0001 2612.5 10.5C2612.5 0.999907 2621.5 6.39778e-10 2621.5 6.39778e-10H3056.5C3056.5 6.39778e-10 3064.01 -9.15527e-05 3064 10C3063.99 20.0001 3056.5 20 3056.5 20C2966.49 21.5 2904.49 69.5 2904.49 69.5C2845.49 109 2820 151.5 2820 151.5C2804.99 173 2790.5 210.5 2790.5 210.5L2605 775C2605 775 2725.99 862 2794 962C2794 962 2874.99 1074.5 2909.49 1186C2944 1297.5 2945.5 1424.5 2945.5 1424.5V1496C2945.5 1575.14 2936.43 1605.49 2920.91 1657.44C2918.58 1665.23 2916.11 1673.5 2913.5 1682.5C2893.49 1751.5 2846.5 1835.5 2846.5 1835.5C2801.99 1924.5 2699 2027 2699 2027C2591.49 2130 2470.5 2184.5 2470.5 2184.5C2421.49 2209.5 2337 2235 2335.99 2234C2335.65 2233.66 2340.79 2230.3 2348.69 2225.16L2348.7 2225.15L2348.71 2225.14C2363.8 2215.31 2388.92 2198.94 2405 2184.5C2405 2184.5 2476.99 2127.5 2531 2027C2585.01 1926.5 2599.5 1835.5 2599.5 1835.5C2612.43 1776.72 2618 1682.5 2618 1682.5V1572.5C2618 1572.5 2611.45 1482.03 2603.5 1424.5C2603.5 1424.5 2573.99 1240 2554.5 1185.5C2554.5 1185.5 2531.73 1107.39 2511.5 1059.5L2125 2234H1296C1296 2234 1288.51 2234.22 1288.5 2224.5C1288.49 2214.78 1296 2214 1296 2214C1296 2214 1412.99 2224.5 1432 2103V2070L1423 2029L1299 1654.5C1255.49 1672 1146 1677.5 1146 1677.5H1099C1008.1 1675.6 868 1648.5 868 1648.5C801.994 1638.5 702 1602 702 1602C643.615 1579.06 581.193 1542.37 555.74 1527.4L555.738 1527.4C554.581 1526.72 553.5 1526.09 552.5 1525.5C529.494 1512 494.5 1487 494.5 1487L320 2016.5C320 2016.5 308.5 2044.5 308.5 2069.5V2095.5C308.5 2095.5 306.006 2124 331.5 2162.5C356.994 2201 398.5 2209 398.5 2209C416.563 2214.38 446.5 2214 446.5 2214L452.5 2224L442 2234H9C0.994141 2234 0 2224.5 0 2224.5C0 2224.5 0.494141 2214.5 5.5 2214.5C5.67773 2214.5 5.95123 2214.5 6.31739 2214.51ZM870.5 347L580.5 1222.5C600.853 1264.14 642 1324 642 1324C642 1324 698.494 1406.5 745 1444C745 1444 836.494 1530 949.5 1577.5C1062.51 1625 1146 1626.5 1146 1626.5H1207.5C1207.5 1626.5 1255.99 1622 1285.5 1614L870.5 347ZM2194.5 1886L1779.5 620C1779.5 620 1829.76 609.101 1862.5 607C1885.49 605.525 1921.5 607 1921.5 607C1921.5 607 2021.99 616 2099.99 650C2099.99 650 2197.99 684.5 2308 777.5C2308 777.5 2388.49 848 2451.5 953.5L2484 1010.5L2194.5 1886ZM1308 219L1964 2206C1964 2206 1922.99 2201.5 1861.5 2155.5C1861.5 2155.5 1817.01 2124 1789 2081.5C1760.99 2039 1750.5 1992 1750.5 1992L1100.5 27C1100.5 27 1148.49 40.5 1182.5 63C1182.5 63 1235.51 96 1268 141C1300.49 186 1308 219 1308 219Z" fill="white"/>
</svg>
