<svg width="3072" height="2243" viewBox="0 0 3072 2243" fill="none" xmlns="http://www.w3.org/2000/svg">
<path fill-rule="evenodd" clip-rule="evenodd" d="M10.3272 2218.51C20.274 2218.69 98.5928 2220.14 182.504 2156C182.504 2156 235.504 2119 268.01 2054.5L463.51 1463C463.51 1463 358.004 1392.5 265.01 1262.5C265.01 1262.5 146.504 1101.5 131.01 911.5C131.01 911.5 107.504 734 146.51 590C185.516 446 248.51 361 248.51 361C248.51 361 318.504 237.5 466.51 131.5C466.51 131.5 536.516 80.8356 611.01 48.5C685.504 16.1644 733.51 4 733.51 4C733.51 4 661.004 45.5 611.01 106.5C611.01 106.5 522.004 195.5 480.01 361C480.01 361 451.504 452 451.51 590C451.51 590 447.004 727.5 482.01 911.5C517.016 1095.5 558.004 1179 558.004 1179L944.51 4H1772.51C1780.5 3.99991 1781.01 14 1781.01 14C1781.01 14 1780.5 23.9999 1772.51 24C1772.12 24 1771.61 23.9928 1770.99 23.9841C1758.89 23.8143 1704.72 23.0535 1670.01 63C1633.52 105 1638 140 1638 140C1638 140 1635.5 126.5 1638 164C1640.5 201.5 1658.5 243.5 1658.5 243.5C1684.5 326.5 1770 582.5 1770 582.5C1770 582.5 1853 559.5 1945.51 560C1945.51 560 2115 563.5 2268.51 604C2268.51 604 2418.5 638.5 2575.5 752L2752.01 214.5C2752.01 214.5 2762.59 178.862 2762.01 155.5C2762.01 155.5 2762.01 107 2736.01 73C2736.01 73 2705 21.4999 2624.01 24C2624.01 24 2616.51 24.0001 2616.51 14.5C2616.51 4.99991 2625.51 4 2625.51 4H3060.51C3060.51 4 3068.02 3.99991 3068.01 14C3068 24.0001 3060.51 24 3060.51 24C2970.5 25.5 2908.5 73.5 2908.5 73.5C2849.5 113 2824.01 155.5 2824.01 155.5C2809 177 2794.51 214.5 2794.51 214.5L2609.01 779C2609.01 779 2730 866 2798.01 966C2798.01 966 2879 1078.5 2913.5 1190C2948.01 1301.5 2949.51 1428.5 2949.51 1428.5V1500C2949.51 1579.14 2940.44 1609.49 2924.92 1661.44C2922.59 1669.23 2920.12 1677.5 2917.51 1686.5C2897.5 1755.5 2850.51 1839.5 2850.51 1839.5C2806 1928.5 2703.01 2031 2703.01 2031C2595.5 2134 2474.51 2188.5 2474.51 2188.5C2425.5 2213.5 2341.01 2239 2340 2238C2339.66 2237.66 2344.8 2234.3 2352.7 2229.16L2352.71 2229.15L2352.72 2229.14C2367.81 2219.31 2392.93 2202.94 2409.01 2188.5C2409.01 2188.5 2481 2131.5 2535.01 2031C2589.02 1930.5 2603.51 1839.5 2603.51 1839.5C2616.44 1780.72 2622.01 1686.5 2622.01 1686.5V1576.5C2622.01 1576.5 2615.46 1486.03 2607.51 1428.5C2607.51 1428.5 2578 1244 2558.51 1189.5C2558.51 1189.5 2535.74 1111.39 2515.51 1063.5L2129.01 2238H1300.01C1300.01 2238 1292.52 2238.22 1292.51 2228.5C1292.5 2218.78 1300.01 2218 1300.01 2218C1300.01 2218 1417 2228.5 1436.01 2107V2074L1427.01 2033L1303.01 1658.5C1259.5 1676 1150.01 1681.5 1150.01 1681.5H1103.01C1012.11 1679.6 872.01 1652.5 872.01 1652.5C806.004 1642.5 706.01 1606 706.01 1606C647.625 1583.06 585.203 1546.37 559.75 1531.4L559.748 1531.4C558.591 1530.72 557.51 1530.09 556.51 1529.5C533.504 1516 498.51 1491 498.51 1491L324.01 2020.5C324.01 2020.5 312.51 2048.5 312.51 2073.5V2099.5C312.51 2099.5 310.016 2128 335.51 2166.5C361.004 2205 402.51 2213 402.51 2213C420.572 2218.38 450.51 2218 450.51 2218L456.51 2228L446.01 2238H13.0098C5.00391 2238 4.00977 2228.5 4.00977 2228.5C4.00977 2228.5 4.50391 2218.5 9.50977 2218.5C9.68749 2218.5 9.961 2218.5 10.3272 2218.51ZM874.51 351L584.51 1226.5C604.862 1268.14 646.01 1328 646.01 1328C646.01 1328 702.504 1410.5 749.01 1448C749.01 1448 840.504 1534 953.51 1581.5C1066.52 1629 1150.01 1630.5 1150.01 1630.5H1211.51C1211.51 1630.5 1260 1626 1289.51 1618L874.51 351ZM2198.51 1890L1783.51 624C1783.51 624 1833.77 613.101 1866.51 611C1889.5 609.525 1925.51 611 1925.51 611C1925.51 611 2026 620 2104 654C2104 654 2202 688.5 2312.01 781.5C2312.01 781.5 2392.5 852 2455.51 957.5L2488.01 1014.5L2198.51 1890ZM1312.01 223L1968.01 2210C1968.01 2210 1927 2205.5 1865.51 2159.5C1865.51 2159.5 1821.02 2128 1793.01 2085.5C1765 2043 1754.51 1996 1754.51 1996L1104.51 31C1104.51 31 1152.5 44.5 1186.51 67C1186.51 67 1239.52 100 1272.01 145C1304.5 190 1312.01 223 1312.01 223Z" fill="url(#paint0_linear_375_4734)"/>
<path d="M944.51 4L558.004 1179C558.004 1179 517.016 1095.5 482.01 911.5C447.004 727.5 451.51 590 451.51 590C451.504 452 480.01 361 480.01 361C522.004 195.5 611.01 106.5 611.01 106.5C661.004 45.5 733.51 4 733.51 4C733.51 4 685.504 16.1644 611.01 48.5C536.516 80.8356 466.51 131.5 466.51 131.5C318.504 237.5 248.51 361 248.51 361C248.51 361 185.516 446 146.51 590C107.504 734 131.01 911.5 131.01 911.5C146.504 1101.5 265.01 1262.5 265.01 1262.5C358.004 1392.5 463.51 1463 463.51 1463L268.01 2054.5C235.504 2119 182.504 2156 182.504 2156C98.5928 2220.14 20.274 2218.69 10.3272 2218.51C9.961 2218.5 9.68749 2218.5 9.50977 2218.5C4.50391 2218.5 4.00977 2228.5 4.00977 2228.5C4.00977 2228.5 5.00391 2238 13.0098 2238M944.51 4C944.51 4 1764.52 4.00009 1772.51 4M944.51 4H1772.51M1772.51 4C1780.5 3.99991 1781.01 14 1781.01 14C1781.01 14 1780.5 23.9999 1772.51 24C1772.12 24 1771.61 23.9928 1770.99 23.9841C1758.89 23.8143 1704.72 23.0535 1670.01 63C1633.52 105 1638 140 1638 140C1638 140 1635.5 126.5 1638 164C1640.5 201.5 1658.5 243.5 1658.5 243.5C1684.5 326.5 1770 582.5 1770 582.5C1770 582.5 1853 559.5 1945.51 560C1945.51 560 2115 563.5 2268.51 604C2268.51 604 2418.5 638.5 2575.5 752L2752.01 214.5C2752.01 214.5 2762.59 178.862 2762.01 155.5C2762.01 155.5 2762.01 107 2736.01 73C2736.01 73 2705 21.4999 2624.01 24C2624.01 24 2616.51 24.0001 2616.51 14.5C2616.51 4.99991 2625.51 4 2625.51 4H3060.51C3060.51 4 3068.02 3.99991 3068.01 14C3068 24.0001 3060.51 24 3060.51 24C2970.5 25.5 2908.5 73.5 2908.5 73.5C2849.5 113 2824.01 155.5 2824.01 155.5C2809 177 2794.51 214.5 2794.51 214.5L2609.01 779C2609.01 779 2730 866 2798.01 966C2798.01 966 2879 1078.5 2913.5 1190C2948.01 1301.5 2949.51 1428.5 2949.51 1428.5V1500C2949.51 1579.14 2940.44 1609.49 2924.92 1661.44C2922.59 1669.23 2920.12 1677.5 2917.51 1686.5C2897.5 1755.5 2850.51 1839.5 2850.51 1839.5C2806 1928.5 2703.01 2031 2703.01 2031C2595.5 2134 2474.51 2188.5 2474.51 2188.5C2425.5 2213.5 2341.01 2239 2340 2238C2339.66 2237.66 2344.8 2234.3 2352.7 2229.16M446.01 2238L456.51 2228L450.51 2218C450.51 2218 420.572 2218.38 402.51 2213C402.51 2213 361.004 2205 335.51 2166.5C310.016 2128 312.51 2099.5 312.51 2099.5V2073.5C312.51 2048.5 324.01 2020.5 324.01 2020.5L498.51 1491C498.51 1491 533.504 1516 556.51 1529.5C557.51 1530.09 558.591 1530.72 559.748 1531.4L559.75 1531.4C585.203 1546.37 647.625 1583.06 706.01 1606C706.01 1606 806.004 1642.5 872.01 1652.5C872.01 1652.5 1012.11 1679.6 1103.01 1681.5H1150.01C1150.01 1681.5 1259.5 1676 1303.01 1658.5L1427.01 2033L1436.01 2074V2107C1417 2228.5 1300.01 2218 1300.01 2218C1300.01 2218 1292.5 2218.78 1292.51 2228.5C1292.52 2238.22 1300.01 2238 1300.01 2238H2129.01L2515.51 1063.5C2535.74 1111.39 2558.51 1189.5 2558.51 1189.5C2578 1244 2607.51 1428.5 2607.51 1428.5C2615.46 1486.03 2622.01 1576.5 2622.01 1576.5V1686.5C2622.01 1686.5 2616.44 1780.72 2603.51 1839.5C2603.51 1839.5 2589.02 1930.5 2535.01 2031C2481 2131.5 2409.01 2188.5 2409.01 2188.5C2392.93 2202.94 2367.81 2219.31 2352.72 2229.14M446.01 2238C446.01 2238 21.0156 2238 13.0098 2238M446.01 2238H13.0098M2352.72 2229.14L2352.71 2229.15M2352.72 2229.14C2352.72 2229.15 2352.71 2229.15 2352.71 2229.15M2352.71 2229.15L2352.7 2229.16M2352.71 2229.15C2352.71 2229.15 2352.7 2229.15 2352.7 2229.16M584.51 1226.5L874.51 351L1289.51 1618C1260 1626 1211.51 1630.5 1211.51 1630.5H1150.01C1150.01 1630.5 1066.52 1629 953.51 1581.5C840.504 1534 749.01 1448 749.01 1448C702.504 1410.5 646.01 1328 646.01 1328C646.01 1328 604.862 1268.14 584.51 1226.5ZM1968.01 2210L1312.01 223C1312.01 223 1304.5 190 1272.01 145C1239.52 100 1186.51 67 1186.51 67C1152.5 44.5 1104.51 31 1104.51 31L1754.51 1996C1754.51 1996 1765 2043 1793.01 2085.5C1821.02 2128 1865.51 2159.5 1865.51 2159.5C1927 2205.5 1968.01 2210 1968.01 2210ZM2198.51 1890L1783.51 624C1783.51 624 1833.77 613.101 1866.51 611C1889.5 609.525 1925.51 611 1925.51 611C1925.51 611 2026 620 2104 654C2104 654 2202 688.5 2312.01 781.5C2312.01 781.5 2392.5 852 2455.51 957.5L2488.01 1014.5L2198.51 1890Z" stroke="black" stroke-width="8"/>
<defs>
<linearGradient id="paint0_linear_375_4734" x1="3068.01" y1="1121.01" x2="4.00977" y2="1121.01" gradientUnits="userSpaceOnUse">
<stop offset="0.134615" stop-color="#FFD75E"/>
<stop offset="0.3125" stop-color="#FFB215"/>
<stop offset="0.442308" stop-color="#FFD75E"/>
<stop offset="0.658654" stop-color="#FFD75E"/>
<stop offset="0.784099" stop-color="#FFB215"/>
<stop offset="0.951844" stop-color="#FFD75E"/>
</linearGradient>
</defs>
</svg>
